<svg
   width="500"
   height="500"
   viewBox="0 0 132.29167 132.29167"
   version="1.1"
   id="svg8432"
   inkscape:version="1.1.2 (0a00cf5339, 2022-02-04)"
   sodipodi:docname="frustrated_man.svg"
   xmlns:inkscape="http://www.inkscape.org/namespaces/inkscape"
   xmlns:sodipodi="http://sodipodi.sourceforge.net/DTD/sodipodi-0.dtd"
   xmlns="http://www.w3.org/2000/svg"
   xmlns:svg="http://www.w3.org/2000/svg">
  <sodipodi:namedview
     id="namedview8434"
     pagecolor="#ffffff"
     bordercolor="#666666"
     borderopacity="1.0"
     inkscape:pageshadow="2"
     inkscape:pageopacity="0.0"
     inkscape:pagecheckerboard="0"
     inkscape:document-units="mm"
     showgrid="false"
     width="500mm"
     units="px"
     inkscape:zoom="0.60756173"
     inkscape:cx="-108.63094"
     inkscape:cy="562.0828"
     inkscape:window-width="1887"
     inkscape:window-height="1055"
     inkscape:window-x="33"
     inkscape:window-y="25"
     inkscape:window-maximized="1"
     inkscape:current-layer="layer1" />
  <defs
     id="defs8429" />
  <g
     inkscape:label="Layer 1"
     inkscape:groupmode="layer"
     id="layer1"
     style="display:inline;opacity:1">
    <g
       id="g7782"
       style="display:inline"
       transform="matrix(1.1859005,0,0,1.0970667,-547.16493,-328.76866)">
      <g
         id="g7734">
        <path
           style="fill:#ffb2a3"
           d="m 504.637,388.179 c -2.243,-0.663 -4.107,-1.844 -4.799,-3.51 -1.422,0.41 -2.95,0.254 -4.227,-0.407 -0.008,0.07 -0.015,0.141 -0.026,0.207 -1.151,1.513 -1.744,3.007 -0.614,4.439 l 3.391,-0.016 3.359,2.211 3.64,-0.067 c 0.43,-1.22 0.706,-2.379 -0.724,-2.857 z"
           id="path7584" />
        <path
           style="fill:#4c3d83"
           d="m 495.245,384.941 c -1.713,1.262 -1.806,3.433 -1.272,5.134 1.113,1.668 3.519,0.559 5.161,1.029 3.775,1.08 3.781,1.997 5.593,1.955 2.928,-0.068 4.858,-1.376 4.7,-2.387 -0.129,-0.829 -1.395,-1.659 -3.454,-2.468 l -3.328,-0.848 c 0.514,0.311 1.217,0.576 1.991,0.823 1.049,0.716 0.677,1.475 -0.298,2.393 -1.089,0.498 -2.45,0.011 -4.192,-0.948 l -3.754,-1.876 c -1.002,-0.66 -1.473,-1.558 -1.147,-2.807 z"
           id="path7586" />
        <path
           style="fill:#ffb2a3"
           d="m 481.681,387.314 c -0.006,0.075 -0.009,0.148 -0.016,0.224 -0.531,0.986 -0.499,2.408 -0.378,3.96 0,0 2.471,3.993 2.521,4.193 0.05,0.2 3.429,1.065 3.429,1.065 l 1.059,-2.762 c -1.432,-1.426 -1.735,-3.062 -2.275,-5.357 -1.548,0.198 -3.032,-0.007 -4.34,-1.323 z"
           id="path7588" />
        <path
           style="fill:#4c3d83"
           d="m 481.665,387.538 c -1.185,1.014 -1.135,3.062 -0.883,4.592 0.555,1.231 1.352,1.986 2.269,3.794 l 0.864,1.188 c 1.724,1.512 4.809,1.707 5.893,0.909 0.706,-1.298 -0.137,-2.577 -2.255,-4.845 0.807,1.736 -0.115,2.583 -2.209,2.349 -0.995,-0.198 -1.663,-1.597 -2.747,-3.494 -0.993,-1.993 -1.659,-3.163 -0.932,-4.493 z"
           id="path7590" />
        <path
           style="fill:#362d5c"
           d="m 500.632,385.29 c -1.229,-2.956 2.042,-15.017 2.845,-22.185 -1.914,-9.484 -4.243,-18.1 -7.139,-25.528 l -7.353,8.921 c 1.832,6.799 4.138,13.186 7.274,18.853 -4.092,6.253 -2.139,15.935 -2.574,19.636 1.278,0.661 4.279,1.615 6.947,0.303 z"
           id="path7592" />
        <path
           style="fill:#4c3d83"
           d="m 479.639,387.536 c 0.33,0.814 0.993,1.435 1.807,1.841 1.679,0.843 3.991,0.762 5.322,-0.48 -1.482,-6.303 0.685,-15.042 2.526,-20.402 1.464,-4.855 2.025,-10.97 2.59,-16.956 2.822,-2.77 5.695,-6.183 5.322,-10.927 0.886,-5.691 -13.881,-8.474 -16.044,-1.618 -1.837,4.479 -0.968,7.878 0.424,11.822 0.218,6.393 -0.009,10.773 0.218,15.941 -4.409,9.013 -1.63,14.134 -2.165,20.779 z"
           id="path7594" />
        <path
           style="opacity:0.5;fill:#4c3d83"
           d="m 479.639,387.536 c 0.33,0.814 0.993,1.435 1.807,1.841 -1.807,-7.634 -1.083,-15.08 2.188,-22.342 0,0 0.895,-6.988 3.002,-10.242 0.929,-1.426 0.128,-2.817 0.176,-3.511 0.081,-1.147 1.105,-1.122 0.754,-1.931 -0.51,-1.16 -0.809,-1.67 -1.319,-2.132 -0.822,-0.745 -0.852,-2.038 -0.081,-2.839 0.788,-0.809 1.871,-1.43 3.147,-1.935 l -8.148,-5.451 c -1.837,4.479 -0.968,7.878 0.424,11.822 0.218,6.393 -0.009,10.773 0.218,15.941 -4.412,9.013 -1.633,14.134 -2.168,20.779 z"
           id="path7596" />
        <path
           d="m 495.925,303.81 c 0,0 1.317,1.935 0.431,4.294 0,0 -0.498,1.332 0,2.47 0,0 -0.97,-0.333 -1.636,-1.276 -0.666,-0.945 1.205,-5.488 1.205,-5.488 z"
           id="path7598" />
        <path
           style="fill:#e64047"
           d="m 511.56,328.437 -7.167,-2.212 c -3.761,-5.717 -6.509,-13.101 -10.091,-13.07 l -2.025,5.498 9.074,12.179 c 0,0 6.438,0.931 10.21,1.466 v -3.861 z"
           id="path7600" />
        <path
           style="opacity:0.5;fill:#b33237"
           d="m 495.136,317.797 c 0.277,0.381 6.406,8.938 6.406,8.938 l 8.525,5.929 -13.311,2.109 z"
           id="path7602" />
        <path
           style="fill:#e64047"
           d="m 496.901,331.783 0.26,7.668 c -1.487,9.056 -14.167,6.478 -16.831,1.019 0.585,-2.633 2.667,-3.73 1.625,-6.348 -1.438,-3.605 -2.404,-6.498 -2.404,-6.498 -0.322,-0.925 -0.608,-1.765 -0.827,-2.534 -0.803,-2.802 -0.733,-4.718 1.606,-6.735 4.494,-3.306 9.114,-5.42 13.972,-5.199 2.306,0.327 2.857,3.447 2.306,6.408 -0.496,2.662 3.114,5.438 3.286,7.302 0.336,3.63 -2.993,4.917 -2.993,4.917 z"
           id="path7604" />
        <path
           style="opacity:0.5;fill:#b33237"
           d="m 497.16,339.451 c -1.487,9.056 -14.167,6.478 -16.831,1.019 0.585,-2.633 2.667,-3.73 1.625,-6.348 -1.438,-3.605 -2.404,-6.498 -2.404,-6.498 -0.322,-0.925 -0.608,-1.765 -0.827,-2.534 0.234,-1.359 0.53,-2.537 0.827,-2.23 5.459,5.667 5.914,12.576 11.422,11.9 3.059,-0.377 3.623,-3.922 3.623,-3.922 0.79,0.686 1.562,1.024 2.306,0.946 z"
           id="path7606" />
        <path
           style="fill:#ffb2a3"
           d="m 487.284,308.874 -0.534,5.813 c 1.191,5.916 3.618,8.123 5.832,7.394 1.776,-0.833 1.683,-3.114 0.734,-5.935 l -0.122,-3.196 z"
           id="path7608" />
        <path
           style="fill:#ffc8b3"
           d="m 487.181,311.705 c -0.023,0.067 0.873,6.268 4.24,6.088 2.109,-0.112 1.711,-4.768 1.711,-4.768 z"
           id="path7610" />
        <path
           style="fill:#ffb2a3"
           d="m 493.103,315.301 c -1.536,0.688 -3.769,-0.943 -4.783,-1.795 -0.345,-0.29 -0.613,-0.659 -0.788,-1.074 l -0.827,-1.963 -1.297,0.101 c 0,0 -2.256,-1.212 -1.903,-5.657 0.177,-2.222 3.002,-4.45 5.354,-4.462 3.704,-0.018 5.061,2.255 6.044,3.772 0.983,1.517 0.421,4.63 0.421,4.63 0,0 -0.159,5.525 -2.221,6.448 z"
           id="path7612" />
        <g
           id="g7616">
          <path
             d="m 492.749,300.749 c -4.328,-2.581 -7.66,0.139 -8.242,1.582 0,0 -2.997,1.902 -1.998,5.627 0,0 0.223,6.215 4.905,6.981 0.074,-1.041 0.105,-3.305 -0.233,-3.839 l 0.046,-1.304 c 0,0 2.249,-2.026 1.457,-4.718 0,0 1.623,1.388 4.065,0.999 2.442,-0.389 2.723,1.391 2.723,1.391 l 0.83,-1.502 c 0,0 0.775,-2.636 -3.553,-5.217 z"
             id="path7614" />
        </g>
        <path
           style="fill:#ffb2a3"
           d="m 487.369,309.647 c 0.169,0.941 -0.163,1.703 -0.741,1.703 -0.579,0 -1.186,-0.763 -1.355,-1.703 -0.169,-0.941 0.163,-1.703 0.741,-1.703 0.578,0 1.186,0.763 1.355,1.703 z"
           id="path7618" />
        <path
           style="fill:#e64047"
           d="m 478.723,320.322 c 0,0 -3.457,7.535 -3.929,12.869 0,0 -0.423,2.906 0.913,4.226 1.336,1.319 6.894,1.578 6.894,1.578 l 1.492,-3.852 -3.936,-1.951 1.086,-3.036 c 2.226,-4.635 1.062,-9.834 -2.52,-9.834 z"
           id="path7620" />
        <g
           id="g7728">
          <path
             style="fill:#f3f2f2"
             d="m 536.429,359.774 0.127,-55.215 -75.037,43.607 -0.127,55.215 c -0.007,3.247 1.726,6.25 4.542,7.867 l 7.96,4.571 75.037,-43.607 -7.96,-4.571 c -2.816,-1.617 -4.55,-4.619 -4.542,-7.867 z"
             id="path7622" />
          <g
             id="g7726">
            <path
               d="m 521.881,331.519 -9.318,5.38 -0.247,0.142 -9.318,5.379 -0.246,0.142 -9.318,5.38 -0.246,0.142 -9.318,5.379 -0.246,0.142 -15.04,8.683 v 6.637 0.341 4.252 0.341 4.252 0.341 4.252 0.341 4.252 0.341 4.252 0.341 4.593 l 15.04,-8.683 0.246,-0.141 9.318,-5.38 0.246,-0.142 9.318,-5.38 0.246,-0.142 9.318,-5.38 0.246,-0.142 9.318,-5.38 0.246,-0.142 9.564,-5.522 v -4.593 -0.341 -4.252 -0.341 -4.252 -0.341 -4.252 -0.341 -4.252 -0.341 -4.252 -0.341 -6.637 l -9.564,5.522 z m -9.318,5.721 9.318,-5.38 v 6.296 l -9.318,5.38 z m 9.318,5.509 -9.318,5.38 v -4.252 l 9.318,-5.38 z m 0,4.592 -9.318,5.38 v -4.252 l 9.318,-5.38 z m 0,4.594 -9.318,5.38 v -4.252 l 9.318,-5.38 z m 0,4.592 -9.318,5.38 v -4.252 l 9.318,-5.38 z m 0,4.594 -9.318,5.38 v -4.252 l 9.318,-5.38 z m -38.011,17.693 9.318,-5.38 v 4.252 l -9.318,5.38 z m 0,-4.593 9.318,-5.379 v 4.251 l -9.318,5.38 z m 0,-4.593 9.318,-5.38 v 4.252 l -9.318,5.38 z m 0,-4.593 9.318,-5.379 v 4.252 l -9.318,5.38 z m 0,-4.593 9.318,-5.38 v 4.252 l -9.318,5.38 z m 28.446,-12.171 -9.318,5.379 v -4.252 l 9.318,-5.38 z m 0,4.592 -9.318,5.38 v -4.252 l 9.318,-5.38 z m 0,4.593 -9.318,5.38 v -4.252 l 9.318,-5.379 z m 0,4.593 -9.318,5.38 v -4.252 l 9.318,-5.379 z m -18.882,6.65 9.318,-5.38 v 4.252 l -9.318,5.38 z m 0,-4.593 9.318,-5.38 v 4.252 l -9.318,5.38 z m 0,-4.593 9.318,-5.38 v 4.252 l -9.318,5.38 z m 9.318,-5.721 -9.318,5.38 v -4.252 l 9.318,-5.38 z m -9.318,19.5 9.318,-5.38 v 4.252 l -9.318,5.38 z m 9.565,-5.522 9.318,-5.379 v 4.252 l -9.318,5.38 z m -0.001,-25.008 9.318,-5.38 v 6.295 l -9.318,5.379 z m -9.564,5.522 9.318,-5.38 v 6.295 l -9.318,5.38 z m -9.564,5.522 9.318,-5.38 v 6.296 l -9.318,5.379 z m -15.04,8.683 14.794,-8.541 v 6.296 l -14.794,8.541 z m 0,6.636 14.794,-8.541 v 4.252 l -14.794,8.541 z m 0,4.593 14.794,-8.541 v 4.252 l -14.794,8.541 z m 0,4.593 14.794,-8.541 v 4.252 l -14.794,8.541 z m 0,4.593 14.794,-8.541 v 4.252 l -14.794,8.541 z m 0,4.593 14.794,-8.541 v 4.252 l -14.794,8.541 z m 14.794,0.304 -14.794,8.541 v -4.252 l 14.794,-8.541 z m 9.564,-5.522 -9.318,5.379 v -4.252 l 9.318,-5.38 z m 9.564,-5.522 -9.318,5.38 v -4.252 l 9.318,-5.38 z m 9.565,-5.522 -9.318,5.379 v -4.252 l 9.318,-5.379 z m 9.564,-5.522 -9.318,5.38 v -4.252 l 9.318,-5.38 z m 9.564,-5.522 -9.318,5.38 v -4.252 l 9.318,-5.379 z m 0,-4.592 -9.318,5.38 v -4.252 l 9.318,-5.379 z m 0,-4.593 -9.318,5.379 v -4.252 l 9.318,-5.38 z m 0,-4.593 -9.318,5.379 v -4.252 l 9.318,-5.38 z m 0,-4.593 -9.318,5.379 v -4.252 l 9.318,-5.38 z m 0,-4.593 -9.318,5.38 v -4.252 l 9.318,-5.38 z m 0,-10.888 v 6.296 l -9.318,5.38 v -6.295 z"
               id="path7624" />
            <path
               d="m 511.404,326.073 v 5.024 l 20.288,-11.713 v -5.024 z m 20.041,-6.888 -19.795,11.428 v -4.342 l 19.795,-11.428 z"
               id="path7626" />
            <polygon
               points="494.114,342.964 468.706,357.633 468.706,358.542 494.114,343.874 "
               id="polygon7628" />
            <polygon
               points="531.629,321.305 516.589,329.988 516.589,330.898 531.629,322.215 "
               id="polygon7630" />
            <polygon
               points="477.974,347.43 468.706,352.781 468.706,353.69 477.974,348.34 "
               id="polygon7632" />
            <polygon
               points="471.116,363.558 480.383,358.207 480.383,357.297 471.116,362.648 "
               id="polygon7634" />
            <polygon
               points="471.116,370.386 480.383,365.035 480.383,364.125 471.116,369.476 "
               id="polygon7636" />
            <polygon
               points="471.116,374.979 477.085,371.533 477.085,370.623 471.116,374.069 "
               id="polygon7638" />
            <polygon
               points="471.116,379.572 475.75,376.897 475.75,375.987 471.116,378.662 "
               id="polygon7640" />
            <polygon
               points="471.116,384.165 480.384,378.814 480.384,377.905 471.116,383.255 "
               id="polygon7642" />
            <polygon
               points="471.116,388.758 480.384,383.407 480.384,382.497 471.116,387.848 "
               id="polygon7644" />
            <polygon
               points="477.974,388.481 471.116,392.441 471.116,393.351 477.974,389.391 "
               id="polygon7646" />
            <polygon
               points="471.116,365.824 476.81,362.536 476.81,361.626 471.116,364.914 "
               id="polygon7648" />
            <polygon
               points="485.626,355.18 490.883,352.145 490.883,351.236 485.626,354.27 "
               id="polygon7650" />
            <polygon
               points="485.627,357.446 488.857,355.581 488.857,354.672 485.627,356.536 "
               id="polygon7652" />
            <polygon
               points="486.914,361.265 490.144,359.4 490.144,358.491 486.914,360.355 "
               id="polygon7654" />
            <polygon
               points="486.914,365.858 490.144,363.993 490.144,363.084 486.914,364.949 "
               id="polygon7656" />
            <polygon
               points="486.914,370.451 490.144,368.586 490.144,367.677 486.914,369.541 "
               id="polygon7658" />
            <polygon
               points="486.914,375.044 490.144,373.18 490.144,372.27 486.914,374.135 "
               id="polygon7660" />
            <polygon
               points="486.914,379.637 490.144,377.772 490.144,376.862 486.914,378.727 "
               id="polygon7662" />
            <polygon
               points="499.74,352.95 496.51,354.815 496.51,355.725 499.74,353.86 "
               id="polygon7664" />
            <polygon
               points="496.51,360.318 499.74,358.453 499.74,357.543 496.51,359.408 "
               id="polygon7666" />
            <polygon
               points="496.51,369.504 499.74,367.639 499.74,366.729 496.51,368.594 "
               id="polygon7668" />
            <polygon
               points="496.51,374.097 499.74,372.232 499.74,371.322 496.51,373.187 "
               id="polygon7670" />
            <polygon
               points="499.74,375.915 496.51,377.78 496.51,378.69 499.74,376.825 "
               id="polygon7672" />
            <polygon
               points="509.336,347.41 506.106,349.275 506.106,350.185 509.336,348.32 "
               id="polygon7674" />
            <polygon
               points="509.336,352.003 506.106,353.868 506.106,354.778 509.337,352.913 "
               id="polygon7676" />
            <polygon
               points="509.337,356.596 506.106,358.461 506.106,359.371 509.337,357.506 "
               id="polygon7678" />
            <polygon
               points="509.337,361.189 506.106,363.054 506.106,363.964 509.337,362.099 "
               id="polygon7680" />
            <polygon
               points="506.106,368.557 509.337,366.692 509.337,365.782 506.106,367.647 "
               id="polygon7682" />
            <polygon
               points="509.337,370.375 506.107,372.24 506.107,373.149 509.337,371.284 "
               id="polygon7684" />
            <polygon
               points="518.933,341.87 515.703,343.735 515.703,344.644 518.933,342.78 "
               id="polygon7686" />
            <polygon
               points="518.933,351.056 515.703,352.921 515.703,353.83 518.933,351.966 "
               id="polygon7688" />
            <polygon
               points="518.933,355.649 515.703,357.514 515.703,358.423 518.933,356.559 "
               id="polygon7690" />
            <polygon
               points="518.933,364.834 515.703,366.699 515.703,367.609 518.933,365.744 "
               id="polygon7692" />
            <polygon
               points="528.529,336.329 525.299,338.194 525.299,339.104 528.529,337.239 "
               id="polygon7694" />
            <polygon
               points="528.529,340.923 525.299,342.788 525.299,343.697 528.529,341.832 "
               id="polygon7696" />
            <polygon
               points="528.529,345.515 525.299,347.38 525.299,348.29 528.529,346.425 "
               id="polygon7698" />
            <polygon
               points="528.529,350.109 525.299,351.974 525.299,352.883 528.529,351.018 "
               id="polygon7700" />
            <polygon
               points="528.529,354.701 525.299,356.566 525.299,357.476 528.529,355.611 "
               id="polygon7702" />
            <polygon
               points="528.529,359.294 525.299,361.159 525.299,362.069 528.529,360.204 "
               id="polygon7704" />
            <polygon
               points="495.486,349.488 500.743,346.453 500.743,345.543 495.486,348.578 "
               id="polygon7706" />
            <polygon
               points="495.486,351.754 498.716,349.889 498.716,348.979 495.486,350.844 "
               id="polygon7708" />
            <polygon
               points="505.029,345.343 510.286,342.308 510.286,341.398 505.029,344.433 "
               id="polygon7710" />
            <polygon
               points="517.769,335.713 514.572,337.559 514.572,338.469 517.769,336.623 "
               id="polygon7712" />
            <polygon
               points="514.572,340.735 520.179,337.498 520.179,336.588 514.572,339.825 "
               id="polygon7714" />
            <polygon
               points="529.371,329.015 524.114,332.05 524.114,332.96 529.371,329.925 "
               id="polygon7716" />
            <polygon
               points="529.371,331.281 524.114,334.316 524.115,335.226 529.371,332.191 "
               id="polygon7718" />
            <polygon
               points="529.728,317.551 520.461,322.901 520.461,323.811 529.728,318.46 "
               id="polygon7720" />
            <polygon
               points="518.673,323.934 513.138,327.129 513.138,328.039 518.673,324.843 "
               id="polygon7722" />
            <polygon
               points="483.746,341.444 468.706,350.127 468.706,351.492 483.746,342.809 "
               id="polygon7724" />
          </g>
        </g>
        <polygon
           style="fill:#ffb2a3"
           points="510.81,322.414 509.997,322.801 509.456,322.801 508.967,322.801 507.697,321.416 506.466,322.113 506.786,320.673 508.372,319.59 509.804,319.087 511.124,319.473 511.467,320.054 511.467,321.679 510.887,322.011 "
           id="polygon7730" />
        <polygon
           style="fill:#ffb2a3"
           points="485.806,337.019 484.952,337.426 484.383,337.426 483.87,337.426 482.535,335.971 481.242,336.704 481.578,335.19 483.245,334.052 484.749,333.523 486.137,333.93 486.497,334.54 486.497,336.247 485.887,336.596 "
           id="polygon7732" />
      </g>
      <g
         id="g7778">
        <g
           id="g7776">
          <path
             style="fill:#ffb2a3"
             d="m 537.716,314.597 c 0,-0.397 0.251,-0.751 0.625,-0.882 l 1.302,-0.456 2.016,-0.227 1.404,0.255 c 0.932,0.17 1.773,0.666 2.372,1.4 l 0.996,1.22 1.134,1.312 -1.007,1.809 z"
             id="path7736" />
          <path
             style="fill:#eedfcf"
             d="m 550.453,326.997 0.832,-1.957 -0.612,-1.792 -4.856,-3.572 -0.342,-0.251 c 1.119,-0.777 1.994,-1.676 0.954,-3.517 0,0 6.617,1.26 9.064,3.364 2.893,3.719 4.195,8.202 4.312,13.247 l -9.742,-4.612 z"
             id="path7738" />
          <polygon
             style="fill:#e3ccb3"
             points="553.59,325.083 552.636,326.997 550.453,326.997 551.284,325.04 550.673,323.249 545.817,319.677 552.012,322.478 "
             id="polygon7740" />
          <polygon
             style="fill:#ffb2a3"
             points="551.286,329.553 542.566,333.197 540.354,328.942 546.24,324.087 "
             id="polygon7742" />
          <path
             style="fill:#ffb2a3"
             d="m 542.696,328.88 c 0,0 -2.878,1.065 -4.037,0.467 -1.159,-0.598 -5.76,-5.822 -4.784,-10.091 0.897,-3.924 6.221,-6.475 10.129,-3.065 3.511,3.065 2.28,8.036 2.28,8.036 l 1.944,3.663 -5.531,2.467 v -1.477 z"
             id="path7744" />
          <path
             style="fill:#282752"
             d="m 533.355,321.532 c 0.153,0.678 0.724,1.18 1.412,1.282 0.609,0.091 0.761,0.355 1.229,1.106 l 0.831,1.299 0.913,0.37 c 0.644,0.261 1.202,0.693 1.618,1.249 0.237,0.316 0.571,0.61 0.996,0.612 2.586,0.016 6.199,-3.026 6.199,-3.026 0,0 1.599,-5.269 -2.262,-8.518 -3.861,-3.249 -7.301,-1.147 -8.448,-0.459 -1.036,0.623 -3.335,2.336 -2.488,6.085 z"
             id="path7746" />
          <path
             style="fill:#ffb2a3"
             d="m 537.372,323.766 c 0,0 -0.992,0.11 -0.05,1.893 0.943,1.784 1.298,1.269 1.298,1.269 0,0 0.245,-0.581 0.076,-1.389 -0.174,-0.839 -0.772,-1.904 -1.324,-1.773 z"
             id="path7748" />
          <path
             style="fill:#ffffff"
             d="m 540.984,331.498 -0.199,-1.727 c 0,0 4.206,-4.395 6.78,-4.249 l 1.886,1.475 z"
             id="path7750" />
          <g
             id="g7762">
            <path
               style="fill:#282752"
               d="m 572.212,402.198 c 0.553,1.688 0.78,3.508 0.726,5.443 -0.234,2.242 -2.58,2.422 -3.887,1.211 l -1.722,-2.394 c 0,0 -1.611,-0.984 -2.268,-1.762 -0.657,-0.778 -0.916,-1.524 -0.916,-1.524 0,0 -0.611,-1.336 0.318,-2 0.753,-0.539 1.105,-0.574 2.054,-0.533 z"
               id="path7752" />
            <path
               style="fill:#282752"
               d="m 550.764,410.096 0.784,4.183 c 0,0 1.609,3.886 0.563,5.321 -1.047,1.435 -4.356,0.106 -4.356,0.106 l -3.327,-0.924 c 0,0 -2.209,-0.202 -3.537,-0.66 -1.329,-0.458 -2.72,-1.329 -2.72,-1.329 -1.927,-1.786 -1.372,-4.479 1.279,-4.203 l 5.664,0.569 0.37,-3.062 h 5.28 z"
               id="path7754" />
            <path
               style="fill:#34559c"
               d="m 538.146,387.59 6.969,25.573 c 1.898,1.79 6.442,2.37 7.152,0.203 -0.406,-10.514 -2.505,-18.682 -5.628,-24.776 3.275,-6.285 10.498,-12.987 10.891,-13.599 l 3.312,8.808 c 2.181,4.601 3.935,11.275 5.884,19.493 0.391,0.34 0.811,0.623 1.239,0.862 1.899,1.036 3.985,0.985 4.703,-0.558 -0.478,-8.072 -0.616,-17.652 -4.225,-22.862 l -2.021,-14.05 c 1.545,-3.899 0.613,-10.156 -2.044,-12.746 l -14.573,4.89 -3.043,0.877 v 3.717 c -2.978,6.826 -8.855,15.32 -8.616,24.168 z"
               id="path7756" />
            <path
               style="opacity:0.5;fill:#25435c"
               d="m 557.53,374.991 3.31,8.808 c 2.186,4.6 3.935,11.278 5.886,19.489 0.393,0.342 0.811,0.627 1.242,0.862 l -4.226,-21.016 c 0,0 -2.76,-7.876 -0.415,-14.043 -3.674,4.766 -5.721,5.4 -5.797,5.9 z"
               id="path7758" />
            <path
               style="opacity:0.5;fill:#25435c"
               d="m 538.146,387.59 6.969,25.573 c -0.181,-9.935 -2.026,-16.327 -4.23,-23.871 -0.384,-1.319 -0.449,-2.717 -0.167,-4.058 1.674,-8.051 6.456,-15.782 10.362,-22.833 0,-0.007 -1.275,-3.575 -1.275,-3.575 l -3.043,0.877 v 3.717 c -2.978,6.828 -8.855,15.322 -8.616,24.17 z"
               id="path7760" />
          </g>
          <path
             style="fill:#ffb2a3"
             d="m 533.252,328.642 1.316,-2.072 c 0,0 1.682,-1.731 2.121,-3.486 0.439,-1.755 0.743,-1.911 0.929,-2.362 0.187,-0.451 0.539,-1.097 0.539,-1.097 0.275,-0.797 -0.402,-1.152 -0.835,-0.534 l -1.463,2.066 v -1.341 l 0.587,-1.828 1.234,-2.025 c 0.376,-0.553 -0.319,-0.901 -0.794,-0.407 0.259,-0.704 -0.539,-0.969 -1.161,-0.11 -0.036,-0.32 -0.549,-0.256 -1.033,0.21 l -0.742,0.757 -0.147,0.028 c -0.288,0.054 -0.546,0.21 -0.728,0.439 l -1.287,1.619 -0.561,2.463 c 0,0 -0.146,2.779 0.463,4.266 l -1.316,2.267 z"
             id="path7764" />
          <path
             style="fill:#eedfcf"
             d="m 540.245,333.621 -0.752,9.235 -0.245,3.021 c 0,0 -0.508,-0.055 -1.376,-0.159 -1.988,-0.232 -5.853,-0.722 -9.791,-1.425 -6.88,-1.217 -6.929,-3.26 -6.929,-3.26 -0.098,-0.74 -0.061,-1.498 0.086,-2.257 1.168,-5.841 8.88,-11.944 10.452,-13.547 1.786,-0.74 3.119,1.566 3.119,1.566 l -0.813,1.712 c 0,0.006 -3.413,7.174 -3.413,7.174 l 7.052,-1.505 z"
             id="path7766" />
          <path
             style="fill:#ffb2a3"
             d="m 544.8,315.232 -1.592,0.208 c -0.535,0.051 -0.65,0.798 0.168,0.892 0,0 1.789,0.55 2.333,1.19 0.544,0.64 -0.909,-2.29 -0.909,-2.29 z"
             id="path7768" />
          <path
             style="fill:#eedfcf"
             d="m 565.589,355.571 c -2.232,4.232 -9.969,7.29 -14.917,7.529 -1.804,0.092 -3.241,-0.196 -3.908,-0.93 -2.098,-5.914 -6.465,-11.296 -8.893,-16.452 -0.134,-0.287 -0.263,-0.569 -0.385,-0.85 -0.287,-0.673 -0.52,-1.272 -0.697,-1.853 -0.636,-2.086 -0.612,-3.92 -0.22,-7.902 0,0 0.379,-0.355 1.064,-0.936 1.621,-1.388 4.948,-4.073 8.954,-6.44 3.872,-2.293 7.645,-1.798 7.645,-1.798 8.404,3.817 11.357,29.632 11.357,29.632 z"
             id="path7770" />
          <path
             style="fill:#e3ccb3"
             d="m 550.673,363.1 c -1.804,0.092 -3.241,-0.196 -3.908,-0.93 -2.098,-5.914 -6.465,-11.296 -8.893,-16.452 -1.988,-0.232 -5.853,-0.722 -9.791,-1.425 -6.88,-1.217 -6.929,-3.26 -6.929,-3.26 -0.098,-0.74 -0.061,-1.498 0.086,-2.257 -0.049,0.3 -0.703,4.923 15.553,4.238 0.85,-0.037 1.755,-0.092 2.703,-0.159 0.177,-0.012 0.355,-0.024 0.532,-0.037 -10e-4,0.001 2.886,12.154 10.647,20.282 z"
             id="path7772" />
          <polygon
             style="fill:#e3ccb3"
             points="528.582,336.031 533.995,328.514 530.582,335.682 "
             id="polygon7774" />
        </g>
      </g>
      <path
         style="fill:#e64047"
         d="m 515.362,346.405 c -1.382,-3.254 -7.399,-2.544 -9.103,-10e-4 -0.207,0.309 0.28,0.694 0.521,0.402 2.803,-3.383 9.823,-1.386 7.27,3.445 -1.168,2.21 -3.37,3.558 -5.517,4.671 -1.239,0.642 -2.872,1.707 -4.31,1.575 -2.551,-0.234 -2.556,-2.795 -2.121,-4.58 0.639,-2.625 2.362,-4.448 4.443,-6.034 0.316,-0.241 0.055,-0.718 -0.315,-0.54 -3.213,1.548 -6.03,5.88 -5.052,9.543 1.22,4.57 6.703,1.498 9.21,0.012 2.585,-1.532 6.444,-5.033 4.974,-8.493 z"
         id="path7780" />
    </g>
  </g>
</svg>
