<?xml version="1.0" encoding="UTF-8" standalone="no"?>
<!-- Created with Inkscape (http://www.inkscape.org/) -->

<svg
   width="1000"
   height="1000"
   viewBox="0 0 264.58333 264.58334"
   version="1.1"
   id="svg11909"
   inkscape:version="1.1.2 (0a00cf5339, 2022-02-04)"
   sodipodi:docname="hero_image.svg"
   xmlns:inkscape="http://www.inkscape.org/namespaces/inkscape"
   xmlns:sodipodi="http://sodipodi.sourceforge.net/DTD/sodipodi-0.dtd"
   xmlns="http://www.w3.org/2000/svg"
   xmlns:svg="http://www.w3.org/2000/svg">
  <sodipodi:namedview
     id="namedview11911"
     pagecolor="#ffffff"
     bordercolor="#666666"
     borderopacity="1.0"
     inkscape:pageshadow="2"
     inkscape:pageopacity="0.0"
     inkscape:pagecheckerboard="0"
     inkscape:document-units="mm"
     showgrid="false"
     units="px"
     inkscape:zoom="0.60756173"
     inkscape:cx="-106.98501"
     inkscape:cy="562.0828"
     inkscape:window-width="1887"
     inkscape:window-height="1055"
     inkscape:window-x="33"
     inkscape:window-y="25"
     inkscape:window-maximized="1"
     inkscape:current-layer="layer1" />
  <defs
     id="defs11906" />
  <g
     inkscape:label="Layer 1"
     inkscape:groupmode="layer"
     id="layer1">
    <g
       id="g5958"
       style="display:inline"
       transform="matrix(2.0007201,0,0,1.7366646,-908.51299,-208.08542)">
      <g
         id="g5758">
        <polygon
           style="fill:#de8d1d"
           points="565.926,238.777 565.889,225.815 574.356,220.927 574.393,233.889 "
           id="polygon5756" />
      </g>
      <g
         id="g5762">
        <polygon
           style="fill:#de8d1d"
           points="511.466,243.812 511.429,230.85 522.981,232.576 523.018,245.538 "
           id="polygon5760" />
      </g>
      <g
         id="g5766">
        <path
           style="fill:#de8d1d"
           d="m 565.889,225.815 0.037,12.962 c -10.276,-5.454 -26.326,-5.296 -36.331,0.48 -3.051,1.761 -5.314,3.921 -6.577,6.28 l -0.037,-12.962 c 1.263,-2.359 3.527,-4.519 6.577,-6.28 10.005,-5.776 26.055,-5.934 36.331,-0.48 z"
           id="path5764" />
      </g>
      <g
         id="g5776">
        <g
           id="g5770">
          <path
             style="fill:#ffc966"
             d="m 565.889,225.815 c -10.276,-5.454 -26.326,-5.296 -36.331,0.48 -3.051,1.761 -5.314,3.921 -6.577,6.281 l -11.552,-1.726 c 1.816,-3.555 5.159,-6.805 9.722,-9.44 14.67,-8.47 38.284,-8.631 53.204,-0.483 z"
             id="path5768" />
        </g>
        <g
           id="g5774">
          <path
             style="fill:#f5c075"
             d="m 565.889,225.815 c -10.276,-5.454 -26.326,-5.296 -36.331,0.48 -3.051,1.761 -5.314,3.921 -6.577,6.281 l -11.552,-1.726 c 1.816,-3.555 5.159,-6.805 9.722,-9.44 14.67,-8.47 38.284,-8.631 53.204,-0.483 z"
             id="path5772" />
        </g>
      </g>
      <g
         id="g5872">
        <g
           id="g5784">
          <polygon
             style="fill:#bf343b"
             points="518.632,152.363 528.054,157.803 528.054,209.658 518.632,204.218 "
             id="polygon5778" />
          <polygon
             style="fill:#ff8793"
             points="528.054,146.923 537.475,152.363 528.054,157.803 518.632,152.363 "
             id="polygon5780" />
          <polygon
             style="fill:#ea6c78"
             points="537.475,152.363 528.054,157.803 528.054,209.658 537.475,204.218 "
             id="polygon5782" />
        </g>
        <g
           id="g5792">
          <polygon
             style="fill:#1f387d"
             points="506.559,166.506 515.981,171.946 515.981,216.628 506.559,211.189 "
             id="polygon5786" />
          <polygon
             style="fill:#4977db"
             points="515.981,161.066 525.402,166.506 515.981,171.946 506.559,166.506 "
             id="polygon5788" />
          <polygon
             style="fill:#34559c"
             points="525.402,166.506 515.981,171.946 515.981,216.628 525.402,211.189 "
             id="polygon5790" />
        </g>
        <g
           id="g5800">
          <polygon
             style="fill:#bf343b"
             points="494.486,183.645 503.908,189.085 503.908,223.599 494.486,218.159 "
             id="polygon5794" />
          <polygon
             style="fill:#ff8793"
             points="503.908,178.205 513.33,183.645 503.908,189.085 494.486,183.645 "
             id="polygon5796" />
          <polygon
             style="fill:#ea6c78"
             points="513.33,183.645 503.908,189.085 503.908,223.599 513.33,218.159 "
             id="polygon5798" />
        </g>
        <g
           id="g5808">
          <polygon
             style="fill:#1f387d"
             points="482.372,195.55 491.794,200.989 491.794,230.502 482.372,225.063 "
             id="polygon5802" />
          <polygon
             style="fill:#4977db"
             points="491.794,190.11 501.216,195.55 491.794,200.989 482.372,195.55 "
             id="polygon5804" />
          <polygon
             style="fill:#34559c"
             points="501.216,195.55 491.794,200.989 491.794,230.502 501.216,225.063 "
             id="polygon5806" />
        </g>
        <g
           id="g5816">
          <polygon
             style="fill:#bf343b"
             points="470.258,205.776 479.68,211.215 479.68,237.406 470.258,231.966 "
             id="polygon5810" />
          <polygon
             style="fill:#ff8793"
             points="479.68,200.336 489.102,205.776 479.68,211.215 470.258,205.776 "
             id="polygon5812" />
          <polygon
             style="fill:#ea6c78"
             points="489.102,205.776 479.68,211.215 479.68,237.406 489.102,231.966 "
             id="polygon5814" />
        </g>
        <g
           id="g5824">
          <polygon
             style="fill:#1f387d"
             points="458.144,219.11 467.566,224.55 467.566,244.31 458.144,238.87 "
             id="polygon5818" />
          <polygon
             style="fill:#4977db"
             points="467.566,213.671 476.988,219.11 467.566,224.55 458.144,219.11 "
             id="polygon5820" />
          <polygon
             style="fill:#34559c"
             points="476.988,219.11 467.566,224.55 467.566,244.31 476.988,238.87 "
             id="polygon5822" />
        </g>
        <g
           id="g5870">
          <g
             style="enable-background:new"
             id="g5868">
            <g
               id="g5834">
              <g
                 id="g5828">
                <polygon
                   style="fill:#bf343b"
                   points="519.203,128.701 517.993,127.415 529.736,119.819 530.946,121.104 531.586,135.919 "
                   id="polygon5826" />
              </g>
              <g
                 id="g5832">
                <polygon
                   style="fill:#961f24"
                   points="519.203,128.701 517.993,127.415 529.736,119.819 530.946,121.104 531.586,135.919 "
                   id="polygon5830" />
              </g>
            </g>
            <g
               id="g5838">
              <polygon
                 style="fill:#bf343b"
                 points="521.801,126.767 522.98,127.225 529.848,131.216 528.669,130.758 "
                 id="polygon5836" />
            </g>
            <g
               id="g5842">
              <polygon
                 style="fill:#ea6c78"
                 points="512.653,144.656 521.801,126.767 528.669,130.758 519.521,148.647 "
                 id="polygon5840" />
            </g>
            <g
               id="g5846">
              <polygon
                 style="fill:#ea6c78"
                 points="485.591,178.102 497.214,157.301 504.082,161.293 492.459,182.093 "
                 id="polygon5844" />
            </g>
            <polygon
               style="fill:#ff8793"
               points="504.082,161.293 497.214,157.301 512.653,144.656 519.521,148.647 "
               id="polygon5848" />
            <polygon
               style="fill:#ff8793"
               points="476.435,192.403 469.567,188.412 485.591,178.102 492.459,182.093 "
               id="polygon5850" />
            <g
               id="g5854">
              <polygon
                 style="fill:#ea6c78"
                 points="454.093,206.042 469.567,188.412 476.435,192.403 460.961,210.034 "
                 id="polygon5852" />
            </g>
            <g
               id="g5858">
              <polygon
                 style="fill:#bf343b"
                 points="454.771,207.238 454.093,206.042 460.961,210.034 461.639,211.229 "
                 id="polygon5856" />
            </g>
            <g
               id="g5862">
              <polygon
                 style="fill:#bf343b"
                 points="529.848,131.216 520.362,149.765 504.871,162.452 493.156,183.414 476.837,193.913 461.639,211.229 460.961,210.034 476.435,192.403 492.459,182.093 504.082,161.293 519.521,148.647 528.669,130.758 "
                 id="polygon5860" />
            </g>
            <g
               id="g5866">
              <polygon
                 style="fill:#ea6c78"
                 points="517.993,127.415 529.736,119.819 530.376,134.633 "
                 id="polygon5864" />
            </g>
          </g>
        </g>
      </g>
      <g
         id="g5916">
        <g
           id="g5912">
          <path
             style="fill:#eedfcf"
             d="m 567.681,183.117 -0.459,5.866 c -0.204,1.64 -0.852,2.664 -1.704,3.301 -1.449,1.093 -3.494,1.064 -4.98,1.113 -0.43,0.01 -0.808,0.04 -1.114,0.09 l -0.451,-6.681 2.629,-12.798 c 4.557,-0.149 6.035,3.81 6.079,9.109 z"
             id="path5874" />
          <path
             style="fill:#e3ccb3"
             d="m 565.519,192.283 c -1.449,1.093 -3.494,1.064 -4.98,1.113 v -3.778 l 4.768,-6.729 z"
             id="path5876" />
          <path
             style="fill:#ffb2a3"
             d="m 551.871,176.632 -0.818,-0.885 0.316,1.296 c 0.07,0.164 0.023,0.294 -0.076,0.371 -0.129,0.11 -0.353,0.119 -0.503,-0.028 -0.038,-0.034 -0.074,-0.079 -0.101,-0.137 l -0.51,-1.042 -0.643,0.952 -0.593,0.869 c -0.744,0.999 -1.719,1.841 -3.04,2.471 l -1.1,1.485 -1.101,0.224 0.063,-3.063 2.972,-3.937 0.738,-0.642 0.821,-0.722 1.731,-0.132 1.438,1.026 0.94,1.457 c 0.238,0.479 -0.236,0.769 -0.534,0.437 z"
             id="path5878" />
          <path
             style="opacity:0.5;fill:#ffb294"
             d="m 551.871,176.632 -0.818,-0.885 0.316,1.296 c 0.07,0.164 0.023,0.294 -0.076,0.371 l -0.503,-0.028 c -0.038,-0.034 -0.074,-0.079 -0.101,-0.137 l -0.51,-1.042 -0.643,0.952 -1.922,-1.189 -0.139,-1.405 0.821,-0.722 1.731,-0.132 1.438,1.026 0.94,1.457 c 0.238,0.48 -0.236,0.77 -0.534,0.438 z"
             id="path5880" />
          <path
             style="fill:#282752"
             d="m 551.477,241.028 c -2.721,0.566 -3.159,2.685 -2.121,4.526 l 3.064,4.337 c 1.15,1.998 2.694,2.937 4.714,2.598 1.815,-0.749 2.06,-1.944 1.556,-3.353 l -0.101,-3.009 -1.832,-5.571 z"
             id="path5882" />
          <path
             style="fill:#34559c"
             d="m 559.195,246.9 c -0.849,2.885 -5.439,2.781 -5.807,-1.077 l -1.585,-10.784 c 0,-0.008 -0.846,-4.683 -0.846,-4.683 l -3.08,-10.613 -0.668,-2.778 2.176,-13.405 11.416,-0.525 c 0,0 -2.362,23.55 -2.37,24.471 1.02,6.28 1.129,12.797 0.764,19.394 z"
             id="path5884" />
          <g
             id="g5892">
            <path
               style="opacity:0.5;fill:#25435c"
               d="m 559.195,246.9 c -0.849,2.885 -5.439,2.781 -5.807,-1.077 l -1.585,-10.784 c 0,-0.008 -0.846,-4.683 -0.846,-4.683 l -3.08,-10.613 -0.668,-2.778 2.176,-13.405 11.416,-0.525 c 0,0 -2.362,23.55 -2.37,24.471 1.02,6.28 1.129,12.797 0.764,19.394 z"
               id="path5886" />
            <path
               style="fill:#282752"
               d="m 551.416,251.037 c 1.102,1.857 0.596,4.958 -0.054,6.363 -1.921,0.723 -3.53,0.866 -4.648,0.101 -3.631,-0.217 -5.662,0.268 -7.531,-0.263 -1.987,-0.565 -3.341,-1.162 -4.358,-3.147 -0.392,-0.886 0.146,-2.547 1.765,-2.792 3.017,-0.123 5.725,-0.37 7.203,-1.11 l 2.576,-4.708 4.677,3.688 z"
               id="path5888" />
            <path
               style="fill:#34559c"
               d="m 551.06,217.315 c -0.127,1.124 -1.585,10.473 -1.55,11.136 2.484,7.661 1.585,16.14 2.231,23.293 -2.167,1.625 -7.384,1.919 -7.885,-0.986 l -1.159,-8.842 c -0.006,-0.058 -0.023,-0.179 -0.023,-0.179 l -0.04,-0.317 -0.444,-3.435 -1.332,-8.421 c -0.951,-7.205 0.553,-20.958 0.951,-26.872 l 11.251,-1.326 c -0.006,0.058 -0.006,0.104 0.012,0.156 0.006,0.029 0.011,0.058 0.023,0.086 0.45,1.481 7.182,2.046 7.257,3.603 0.144,3.188 -0.605,8.663 -9.222,12.076 -0.023,0.011 -0.046,0.016 -0.07,0.028 z"
               id="path5890" />
          </g>
          <path
             style="opacity:0.5;fill:#25435c"
             d="m 551.13,217.286 c -0.04,0 -0.063,0.012 -0.069,0.029 -3.222,1.17 -6.023,2.726 -7.303,5.637 -0.974,15.696 -1.205,15.696 -1.061,18.935 -0.006,-0.029 -0.023,-0.15 -0.023,-0.15 l -0.04,-0.317 -0.444,-3.435 -1.332,-8.421 c -0.951,-7.205 0.553,-20.958 0.951,-26.872 l 11.251,-1.326 c -0.006,0.058 -0.006,0.104 0.012,0.156 0.006,0.029 0.011,0.058 0.023,0.086 0.45,1.481 7.182,2.046 7.257,3.603 0.144,3.187 -0.605,8.663 -9.222,12.075 z"
             id="path5894" />
          <polygon
             style="fill:#ffb2a3"
             points="558.974,177.137 551.832,181.18 552.187,172.69 557.604,170.209 "
             id="polygon5896" />
          <path
             style="fill:#eedfcf"
             d="m 560.982,196.492 c -0.174,0.901 0.052,2.56 0.34,4.068 0.434,2.267 -0.615,4.561 -2.618,5.706 -4.177,2.387 -9.706,3.533 -13.528,1.805 -1.026,-0.465 -1.929,-1.135 -2.65,-2.044 -0.775,-0.978 -1.147,-2.21 -1.124,-3.458 0.095,-5.071 0.938,-10.339 2.333,-14.35 0.776,-2.232 1.717,-4.073 2.799,-5.283 l 8.039,-5.366 c 2.834,-1.753 3.962,-2.802 6.586,-3.559 3.926,-0.321 5.319,6.088 3.539,11.505 -10e-4,0.001 -3.344,9.059 -3.716,10.976 z"
             id="path5898" />
          <path
             style="fill:#ffb2a3"
             d="m 552.762,176.318 -1.417,-0.613 c -0.99,-0.428 -1.736,-1.272 -2.039,-2.307 -0.545,-1.861 -1.143,-4.894 -0.143,-7.098 1.544,-3.399 3.643,-4.158 6.984,-2.949 3.341,1.209 4.597,3.731 3.572,7.427 -1.025,3.697 -1.962,3.187 -1.962,3.187 z"
             id="path5900" />
          <path
             style="fill:#282752"
             d="m 548.804,167.408 1.704,2.364 0.551,1.961 0.566,0.818 0.255,1.197 c 0.202,0.948 1.056,1.609 2.025,1.574 1.177,-0.042 2.808,-0.36 4.408,-1.53 0,0 1.334,-0.868 1.866,-4.247 0.532,-3.378 -1.397,-5.32 -2.302,-5.823 -0.906,-0.502 -5.717,-2.83 -8.284,-0.607 -2.845,2.466 -0.789,4.293 -0.789,4.293 z"
             id="path5902" />
          <path
             style="fill:#ffb2a3"
             d="m 551.487,170.335 c 0.178,0.009 0.34,0.118 0.449,0.26 0.109,0.141 0.171,0.312 0.221,0.483 0.191,0.657 0.218,1.362 0.078,2.032 -0.036,0.174 -0.086,0.35 -0.188,0.495 -0.102,0.145 -0.267,0.257 -0.445,0.255 -0.172,-0.002 -0.33,-0.11 -0.432,-0.248 -0.102,-0.139 -0.157,-0.306 -0.205,-0.471 -0.163,-0.563 -0.722,-2.871 0.522,-2.806 z"
             id="path5904" />
          <path
             style="fill:#e3ccb3"
             d="m 549.185,188.649 c -3.275,4.235 -4.689,10.62 -4.009,19.423 -1.013,-0.459 -1.906,-1.117 -2.622,-2.008 -0.8,-0.996 -1.176,-2.262 -1.151,-3.539 0.099,-5.057 0.941,-10.305 2.332,-14.304 z"
             id="path5906" />
          <path
             style="fill:#eedfcf"
             d="m 546.534,182.937 -3.597,3.421 2.965,-5.859 c 0.025,-1.167 -1.669,-1.976 -2.138,-1.355 0,0 -8.07,7.035 -7.623,12.163 0.416,4.781 3.262,4.067 6.355,2.303 l 6.483,-3.647 c 3.662,-2.459 2.875,-9.894 -2.445,-7.026 z"
             id="path5908" />
          <polygon
             style="fill:#e3ccb3"
             points="545.294,181.701 542.937,186.358 539.698,188.476 "
             id="polygon5910" />
        </g>
        <path
           style="fill:#282752"
           d="m 551.234,169.564 c 0,0 -0.536,4.436 0.849,6.13 0.028,0.404 -0.013,0.721 -0.069,1.141 -1.553,0.542 -4.253,2.463 -2.982,-4.476 0.084,0.607 0.769,1.398 1.044,0.834 -0.041,-1.516 -0.077,-3.315 0.347,-4.768 z"
           id="path5914" />
      </g>
      <path
         style="fill:#ffffff"
         d="m 551.967,177.959 -0.911,1.96 c 0,0 3.856,0.221 7.429,-2.505 1.655,-1.263 0.385,-2.509 0.385,-2.509 l -0.416,-0.396 c -0.441,1.216 -3.881,3.062 -6.487,3.45 z"
         id="path5918" />
      <g
         style="enable-background:new"
         id="g5956">
        <g
           id="g5922">
          <path
             style="fill:#bf343b"
             d="M 521.837,250.068 521.8,237.106 c -0.003,-1.064 0.186,-2.135 0.576,-3.193 l 0.037,12.962 c -0.39,1.058 -0.579,2.128 -0.576,3.193 z"
             id="path5920" />
        </g>
        <g
           id="g5926">
          <path
             style="fill:#1f387d"
             d="m 574.382,236.99 0.037,12.962 c -0.01,-3.661 -2.279,-7.317 -6.808,-10.197 l -0.037,-12.962 c 4.529,2.88 6.797,6.536 6.808,10.197 z"
             id="path5924" />
        </g>
        <g
           id="g5930">
          <path
             style="fill:#1f387d"
             d="m 586.3,236.955 0.037,12.962 c 0.016,5.707 -3.742,11.422 -11.268,15.767 l -0.037,-12.962 c 7.525,-4.345 11.284,-10.06 11.268,-15.767 z"
             id="path5928" />
        </g>
        <g
           id="g5934">
          <polygon
             style="fill:#bf343b"
             points="543.192,259.035 544.349,252.15 544.385,265.112 543.229,271.996 "
             id="polygon5932" />
        </g>
        <path
           style="fill:#ea6c78"
           d="m 543.192,259.035 c -8.385,-0.61 -16.236,-2.837 -22.217,-6.313 -9.214,-5.354 -13.04,-13.165 -10.145,-20.533 l 11.547,1.723 c -1.845,5.014 0.807,10.29 7.061,13.924 4.029,2.342 9.283,3.86 14.912,4.314 z"
           id="path5936" />
        <g
           id="g5940">
          <path
             style="fill:#bf343b"
             d="m 509.917,250.087 -0.037,-12.962 c 0.016,5.775 3.924,11.43 11.094,15.596 5.981,3.476 13.831,5.703 22.217,6.313 l 0.037,12.962 c -8.385,-0.61 -16.236,-2.837 -22.217,-6.313 -7.169,-4.166 -11.077,-9.82 -11.094,-15.596 z"
             id="path5938" />
        </g>
        <g
           id="g5944">
          <path
             style="fill:#1f387d"
             d="m 575.032,252.722 0.037,12.962 c -7.822,4.516 -18.501,6.843 -29.463,6.442 l -0.037,-12.962 c 10.962,0.401 21.641,-1.926 29.463,-6.442 z"
             id="path5942" />
        </g>
        <g
           id="g5954">
          <g
             id="g5948">
            <path
               style="fill:#34559c"
               d="m 575.032,252.722 c -7.822,4.516 -18.501,6.843 -29.463,6.442 l 1.152,-6.881 c 7.416,0.211 14.615,-1.386 19.909,-4.443 10.005,-5.776 10.331,-15.078 0.943,-21.045 l 8.467,-4.888 c 14.017,8.668 13.662,22.345 -1.008,30.815 z"
               id="path5946" />
          </g>
          <g
             id="g5952">
            <path
               style="fill:#34559c"
               d="m 575.032,252.722 c -7.822,4.516 -18.501,6.843 -29.463,6.442 l 1.152,-6.881 c 7.416,0.211 14.615,-1.386 19.909,-4.443 10.005,-5.776 10.331,-15.078 0.943,-21.045 l 8.467,-4.888 c 14.017,8.668 13.662,22.345 -1.008,30.815 z"
               id="path5950" />
          </g>
        </g>
      </g>
    </g>
  </g>
</svg>
