<?xml version="1.0" encoding="UTF-8" standalone="no"?>
<!-- Created with Inkscape (http://www.inkscape.org/) -->

<svg
   width="500"
   height="500"
   viewBox="0 0 132.29166 132.29167"
   version="1.1"
   id="svg9548"
   inkscape:version="1.1.2 (0a00cf5339, 2022-02-04)"
   sodipodi:docname="stack_of_money_woman.svg"
   xmlns:inkscape="http://www.inkscape.org/namespaces/inkscape"
   xmlns:sodipodi="http://sodipodi.sourceforge.net/DTD/sodipodi-0.dtd"
   xmlns="http://www.w3.org/2000/svg"
   xmlns:svg="http://www.w3.org/2000/svg">
  <sodipodi:namedview
     id="namedview9550"
     pagecolor="#ffffff"
     bordercolor="#666666"
     borderopacity="1.0"
     inkscape:pageshadow="2"
     inkscape:pageopacity="0.0"
     inkscape:pagecheckerboard="0"
     inkscape:document-units="mm"
     showgrid="false"
     units="px"
     inkscape:zoom="0.60756173"
     inkscape:cx="-106.98501"
     inkscape:cy="562.0828"
     inkscape:window-width="1887"
     inkscape:window-height="1055"
     inkscape:window-x="33"
     inkscape:window-y="25"
     inkscape:window-maximized="1"
     inkscape:current-layer="layer1" />
  <defs
     id="defs9545" />
  <g
     inkscape:label="Layer 1"
     inkscape:groupmode="layer"
     id="layer1">
    <g
       id="g3278"
       style="display:inline"
       transform="matrix(1.2258941,0,0,1.0086666,-232.55282,-210.06894)">
      <g
         id="g2556">
        <g
           id="g2446">
          <g
             id="g2410">
            <g
               style="enable-background:new"
               id="g2408">
              <g
                 id="g2396">
                <polygon
                   style="fill:#9aa651"
                   points="249.373,334.161 228.939,322.285 228.954,327.544 249.389,339.419 "
                   id="polygon2394" />
              </g>
              <g
                 id="g2402">
                <polygon
                   style="fill:#b8ca62"
                   points="297.6,306.317 277.165,294.442 228.939,322.285 249.373,334.161 "
                   id="polygon2398" />
                <polygon
                   style="fill:#a2d96a"
                   points="291.172,306.308 277.16,298.165 235.366,322.295 249.378,330.438 "
                   id="polygon2400" />
              </g>
              <g
                 id="g2406">
                <polygon
                   style="fill:#747d3d"
                   points="249.373,334.161 249.389,339.419 297.615,311.576 297.6,306.317 "
                   id="polygon2404" />
              </g>
            </g>
          </g>
          <path
             style="fill:#b8ca62"
             d="m 255.857,308.175 c -3.41,1.969 -2.141,5.892 2.832,8.764 4.974,2.871 11.77,3.604 15.179,1.635 3.409,-1.969 2.142,-5.892 -2.832,-8.764 -4.973,-2.871 -11.769,-3.603 -15.179,-1.635 z"
             id="path2412" />
          <g
             id="g2424">
            <g
               style="enable-background:new"
               id="g2422">
              <g
                 id="g2416">
                <path
                   style="fill:#f3f2f2"
                   d="m 249.828,310.22 20.437,11.873 6.713,-3.873 0.97,-0.56 c 0.005,0 1.949,-1.125 1.949,-1.125 l -20.437,-11.878 -1.949,1.125 -0.969,0.56 z"
                   id="path2414" />
              </g>
              <g
                 id="g2420">
                <path
                   style="fill:#eedfcf"
                   d="m 270.266,322.093 0.015,5.262 6.699,-3.868 0.974,-0.565 1.958,-1.13 -0.015,-5.257 -1.944,1.125 c -0.005,0 -0.974,0.56 -0.974,0.56 z"
                   id="path2418" />
              </g>
            </g>
          </g>
          <g
             id="g2430">
            <path
               style="fill:#ea6c78"
               d="m 257.139,305.997 20.438,11.878 v 5.266 l 0.974,-0.565 v -5.262 c -0.005,0 -20.442,-11.877 -20.442,-11.877 z"
               id="path2426" />
            <path
               style="fill:#bf343b"
               d="m 277.577,317.875 v 5.266 l 0.974,-0.565 v -5.262 c -0.005,0 -0.974,0.561 -0.974,0.561 z"
               id="path2428" />
          </g>
          <g
             id="g2436">
            <path
               style="fill:#ea6c78"
               d="m 251.303,309.367 20.437,11.878 v 5.267 l 0.974,-0.565 v -5.262 c -0.005,0 -20.442,-11.878 -20.442,-11.878 z"
               id="path2432" />
            <path
               style="fill:#bf343b"
               d="m 271.74,321.244 v 5.267 l 0.974,-0.565 v -5.262 c -0.004,0 -0.974,0.56 -0.974,0.56 z"
               id="path2434" />
          </g>
          <path
             style="fill:#b8ca62"
             d="m 247.76,317.585 c -1.143,0.66 -1.143,1.729 0,2.389 1.143,0.66 2.995,0.66 4.137,0 1.143,-0.66 1.143,-1.729 0,-2.389 -1.142,-0.66 -2.995,-0.66 -4.137,0 z"
             id="path2438" />
          <path
             style="fill:#b8ca62"
             d="m 273.02,305.151 c -1.143,0.659 -1.143,1.729 0,2.389 1.142,0.66 2.995,0.66 4.138,0 1.143,-0.659 1.143,-1.729 0,-2.389 -1.143,-0.659 -2.995,-0.659 -4.138,0 z"
             id="path2440" />
          <polygon
             style="fill:#b8ca62"
             points="249.107,324.285 247.565,323.395 257.5,317.659 259.043,318.549 "
             id="polygon2442" />
          <polygon
             style="fill:#b8ca62"
             points="252.519,324.705 251.303,324.003 259.135,319.481 260.351,320.183 "
             id="polygon2444" />
        </g>
        <g
           id="g2500">
          <g
             id="g2464">
            <g
               style="enable-background:new"
               id="g2462">
              <g
                 id="g2450">
                <polygon
                   style="fill:#9aa651"
                   points="248.106,328.867 227.671,316.992 227.686,322.251 248.121,334.126 "
                   id="polygon2448" />
              </g>
              <g
                 id="g2456">
                <polygon
                   style="fill:#b8ca62"
                   points="296.332,301.024 275.897,289.149 227.671,316.992 248.106,328.867 "
                   id="polygon2452" />
                <polygon
                   style="fill:#a2d96a"
                   points="289.904,301.015 275.892,292.872 234.098,317.001 248.111,325.145 "
                   id="polygon2454" />
              </g>
              <g
                 id="g2460">
                <polygon
                   style="fill:#747d3d"
                   points="248.106,328.867 248.121,334.126 296.347,306.283 296.332,301.024 "
                   id="polygon2458" />
              </g>
            </g>
          </g>
          <path
             style="fill:#b8ca62"
             d="m 254.589,302.882 c -3.409,1.969 -2.141,5.892 2.832,8.764 4.974,2.872 11.77,3.604 15.179,1.635 3.409,-1.969 2.141,-5.892 -2.832,-8.764 -4.973,-2.871 -11.769,-3.603 -15.179,-1.635 z"
             id="path2466" />
          <g
             id="g2478">
            <g
               style="enable-background:new"
               id="g2476">
              <g
                 id="g2470">
                <path
                   style="fill:#f3f2f2"
                   d="m 248.56,304.927 20.437,11.873 6.713,-3.873 0.97,-0.56 c 0.005,0 1.949,-1.125 1.949,-1.125 l -20.438,-11.877 -1.949,1.125 -0.969,0.56 z"
                   id="path2468" />
              </g>
              <g
                 id="g2474">
                <path
                   style="fill:#eedfcf"
                   d="m 268.998,316.8 0.014,5.261 6.699,-3.868 0.974,-0.565 1.959,-1.13 -0.015,-5.257 -1.944,1.125 c -0.005,0 -0.974,0.56 -0.974,0.56 z"
                   id="path2472" />
              </g>
            </g>
          </g>
          <g
             id="g2484">
            <path
               style="fill:#ea6c78"
               d="m 255.872,300.704 20.437,11.878 v 5.266 l 0.974,-0.565 v -5.262 c -0.005,0 -20.442,-11.878 -20.442,-11.878 z"
               id="path2480" />
            <path
               style="fill:#bf343b"
               d="m 276.309,312.582 v 5.266 l 0.974,-0.565 v -5.262 c -0.005,0 -0.974,0.561 -0.974,0.561 z"
               id="path2482" />
          </g>
          <g
             id="g2490">
            <path
               style="fill:#ea6c78"
               d="m 250.035,304.073 20.437,11.878 v 5.267 l 0.974,-0.565 v -5.262 c -0.005,0 -20.442,-11.878 -20.442,-11.878 z"
               id="path2486" />
            <path
               style="fill:#bf343b"
               d="m 270.472,315.951 v 5.267 l 0.974,-0.565 v -5.262 c -0.004,0 -0.974,0.56 -0.974,0.56 z"
               id="path2488" />
          </g>
          <path
             style="fill:#b8ca62"
             d="m 246.492,312.292 c -1.143,0.66 -1.143,1.729 0,2.389 1.143,0.66 2.995,0.66 4.137,0 1.143,-0.66 1.143,-1.729 0,-2.389 -1.142,-0.66 -2.995,-0.66 -4.137,0 z"
             id="path2492" />
          <path
             style="fill:#b8ca62"
             d="m 271.752,299.858 c -1.143,0.66 -1.143,1.729 0,2.389 1.143,0.66 2.995,0.66 4.138,0 1.142,-0.66 1.142,-1.729 0,-2.389 -1.143,-0.66 -2.995,-0.66 -4.138,0 z"
             id="path2494" />
          <polygon
             style="fill:#b8ca62"
             points="247.839,318.992 246.297,318.102 256.232,312.366 257.775,313.256 "
             id="polygon2496" />
          <polygon
             style="fill:#b8ca62"
             points="251.251,319.412 250.035,318.71 257.867,314.188 259.083,314.89 "
             id="polygon2498" />
        </g>
        <g
           id="g2554">
          <g
             id="g2518">
            <g
               style="enable-background:new"
               id="g2516">
              <g
                 id="g2504">
                <polygon
                   style="fill:#9aa651"
                   points="249.373,322.03 228.939,310.155 228.954,315.414 249.389,327.289 "
                   id="polygon2502" />
              </g>
              <g
                 id="g2510">
                <polygon
                   style="fill:#b8ca62"
                   points="297.598,294.188 249.373,322.032 228.937,310.153 260.817,291.751 277.166,282.314 279.883,283.895 282.235,285.26 284.078,286.331 "
                   id="polygon2506" />
                <polygon
                   style="fill:#eaf6a8"
                   points="291.172,294.178 277.16,286.035 235.366,310.164 249.378,318.308 "
                   id="polygon2508" />
              </g>
              <g
                 id="g2514">
                <polygon
                   style="fill:#747d3d"
                   points="249.373,322.03 249.389,327.289 297.615,299.446 297.6,294.187 "
                   id="polygon2512" />
              </g>
            </g>
          </g>
          <path
             style="fill:#b8ca62"
             d="m 255.857,296.045 c -3.41,1.969 -2.141,5.892 2.832,8.764 4.974,2.872 11.77,3.604 15.179,1.635 3.409,-1.968 2.142,-5.892 -2.832,-8.764 -4.973,-2.871 -11.769,-3.603 -15.179,-1.635 z"
             id="path2520" />
          <g
             id="g2532">
            <g
               style="enable-background:new"
               id="g2530">
              <g
                 id="g2524">
                <path
                   style="fill:#f3f2f2"
                   d="m 249.828,298.09 20.437,11.873 6.713,-3.873 0.97,-0.56 c 0.005,0 1.949,-1.125 1.949,-1.125 l -20.437,-11.878 -1.949,1.125 -0.969,0.56 z"
                   id="path2522" />
              </g>
              <g
                 id="g2528">
                <path
                   style="fill:#eedfcf"
                   d="m 270.266,309.963 0.015,5.262 6.699,-3.868 0.974,-0.565 1.958,-1.13 -0.015,-5.257 -1.944,1.125 c -0.005,0 -0.974,0.56 -0.974,0.56 z"
                   id="path2526" />
              </g>
            </g>
          </g>
          <g
             id="g2538">
            <path
               style="fill:#ea6c78"
               d="m 257.139,293.867 20.438,11.877 v 5.267 l 0.974,-0.565 v -5.262 c -0.005,0 -20.442,-11.878 -20.442,-11.878 z"
               id="path2534" />
            <path
               style="fill:#bf343b"
               d="m 277.577,305.744 v 5.267 l 0.974,-0.565 v -5.262 c -0.005,0 -0.974,0.56 -0.974,0.56 z"
               id="path2536" />
          </g>
          <g
             id="g2544">
            <path
               style="fill:#ea6c78"
               d="m 251.303,297.237 20.437,11.878 v 5.267 l 0.974,-0.565 v -5.262 c -0.005,0 -20.442,-11.878 -20.442,-11.878 z"
               id="path2540" />
            <path
               style="fill:#bf343b"
               d="m 271.74,309.114 v 5.267 l 0.974,-0.565 v -5.262 c -0.004,0 -0.974,0.56 -0.974,0.56 z"
               id="path2542" />
          </g>
          <path
             style="fill:#b8ca62"
             d="m 247.76,305.455 c -1.143,0.66 -1.143,1.729 0,2.389 1.143,0.66 2.995,0.66 4.137,0 1.143,-0.66 1.143,-1.729 0,-2.389 -1.142,-0.66 -2.995,-0.66 -4.137,0 z"
             id="path2546" />
          <path
             style="fill:#b8ca62"
             d="m 273.02,293.021 c -1.143,0.66 -1.143,1.729 0,2.389 1.142,0.66 2.995,0.66 4.138,0 1.143,-0.66 1.143,-1.729 0,-2.389 -1.143,-0.66 -2.995,-0.66 -4.138,0 z"
             id="path2548" />
          <polygon
             style="fill:#b8ca62"
             points="249.107,312.155 247.565,311.265 257.5,305.529 259.043,306.419 "
             id="polygon2550" />
          <polygon
             style="fill:#b8ca62"
             points="252.519,312.574 251.303,311.872 259.135,307.351 260.351,308.053 "
             id="polygon2552" />
        </g>
      </g>
      <g
         id="g2720">
        <g
           id="g2610">
          <g
             id="g2574">
            <g
               style="enable-background:new"
               id="g2572">
              <g
                 id="g2560">
                <polygon
                   style="fill:#9aa651"
                   points="249.373,315.616 228.939,303.741 228.954,309 249.389,320.875 "
                   id="polygon2558" />
              </g>
              <g
                 id="g2566">
                <polygon
                   style="fill:#b8ca62"
                   points="297.6,287.773 277.165,275.898 228.939,303.741 249.373,315.616 "
                   id="polygon2562" />
                <polygon
                   style="fill:#a2d96a"
                   points="291.172,287.764 277.16,279.621 235.366,303.75 249.378,311.894 "
                   id="polygon2564" />
              </g>
              <g
                 id="g2570">
                <polygon
                   style="fill:#747d3d"
                   points="249.373,315.616 249.389,320.875 297.615,293.032 297.6,287.773 "
                   id="polygon2568" />
              </g>
            </g>
          </g>
          <path
             style="fill:#b8ca62"
             d="m 255.857,289.631 c -3.41,1.968 -2.141,5.892 2.832,8.764 4.974,2.871 11.77,3.604 15.179,1.635 3.409,-1.969 2.142,-5.892 -2.832,-8.764 -4.973,-2.871 -11.769,-3.603 -15.179,-1.635 z"
             id="path2576" />
          <g
             id="g2588">
            <g
               style="enable-background:new"
               id="g2586">
              <g
                 id="g2580">
                <path
                   style="fill:#f3f2f2"
                   d="m 249.828,291.676 20.437,11.873 6.713,-3.873 0.97,-0.56 c 0.005,0 1.949,-1.125 1.949,-1.125 l -20.437,-11.878 -1.949,1.125 -0.969,0.56 z"
                   id="path2578" />
              </g>
              <g
                 id="g2584">
                <path
                   style="fill:#eedfcf"
                   d="m 270.266,303.549 0.015,5.262 6.699,-3.868 0.974,-0.565 1.958,-1.13 -0.015,-5.257 -1.944,1.125 c -0.005,0 -0.974,0.56 -0.974,0.56 z"
                   id="path2582" />
              </g>
            </g>
          </g>
          <g
             id="g2594">
            <path
               style="fill:#ea6c78"
               d="m 257.139,287.453 20.438,11.878 v 5.267 l 0.974,-0.565 v -5.262 c -0.005,0 -20.442,-11.877 -20.442,-11.877 z"
               id="path2590" />
            <path
               style="fill:#bf343b"
               d="m 277.577,299.33 v 5.267 l 0.974,-0.565 v -5.262 c -0.005,0 -0.974,0.56 -0.974,0.56 z"
               id="path2592" />
          </g>
          <g
             id="g2600">
            <path
               style="fill:#ea6c78"
               d="M 251.303,290.823 271.74,302.7 v 5.266 l 0.974,-0.565 v -5.262 c -0.005,0 -20.442,-11.878 -20.442,-11.878 z"
               id="path2596" />
            <path
               style="fill:#bf343b"
               d="m 271.74,302.7 v 5.266 l 0.974,-0.565 v -5.262 c -0.004,10e-4 -0.974,0.561 -0.974,0.561 z"
               id="path2598" />
          </g>
          <path
             style="fill:#b8ca62"
             d="m 247.76,299.041 c -1.143,0.66 -1.143,1.729 0,2.389 1.143,0.66 2.995,0.66 4.137,0 1.143,-0.66 1.143,-1.729 0,-2.389 -1.142,-0.66 -2.995,-0.66 -4.137,0 z"
             id="path2602" />
          <path
             style="fill:#b8ca62"
             d="m 273.02,286.607 c -1.143,0.66 -1.143,1.729 0,2.389 1.142,0.66 2.995,0.66 4.138,0 1.143,-0.659 1.143,-1.729 0,-2.389 -1.143,-0.66 -2.995,-0.66 -4.138,0 z"
             id="path2604" />
          <polygon
             style="fill:#b8ca62"
             points="249.107,305.741 247.565,304.851 257.5,299.114 259.043,300.005 "
             id="polygon2606" />
          <polygon
             style="fill:#b8ca62"
             points="252.519,306.16 251.303,305.458 259.135,300.937 260.351,301.639 "
             id="polygon2608" />
        </g>
        <g
           id="g2664">
          <g
             id="g2628">
            <g
               style="enable-background:new"
               id="g2626">
              <g
                 id="g2614">
                <polygon
                   style="fill:#9aa651"
                   points="248.106,310.323 227.671,298.448 227.686,303.707 248.121,315.582 "
                   id="polygon2612" />
              </g>
              <g
                 id="g2620">
                <polygon
                   style="fill:#b8ca62"
                   points="296.332,282.48 275.897,270.605 227.671,298.448 248.106,310.323 "
                   id="polygon2616" />
                <polygon
                   style="fill:#a2d96a"
                   points="289.904,282.471 275.892,274.328 234.098,298.457 248.111,306.601 "
                   id="polygon2618" />
              </g>
              <g
                 id="g2624">
                <polygon
                   style="fill:#747d3d"
                   points="248.106,310.323 248.121,315.582 296.347,287.739 296.332,282.48 "
                   id="polygon2622" />
              </g>
            </g>
          </g>
          <path
             style="fill:#b8ca62"
             d="m 254.589,284.338 c -3.409,1.968 -2.141,5.892 2.832,8.764 4.973,2.872 11.77,3.604 15.179,1.635 3.409,-1.969 2.141,-5.892 -2.832,-8.764 -4.973,-2.871 -11.769,-3.603 -15.179,-1.635 z"
             id="path2630" />
          <g
             id="g2642">
            <g
               style="enable-background:new"
               id="g2640">
              <g
                 id="g2634">
                <path
                   style="fill:#f3f2f2"
                   d="m 248.56,286.383 20.437,11.873 6.713,-3.873 0.97,-0.56 c 0.005,0 1.949,-1.126 1.949,-1.126 l -20.438,-11.877 -1.949,1.125 -0.969,0.56 z"
                   id="path2632" />
              </g>
              <g
                 id="g2638">
                <path
                   style="fill:#eedfcf"
                   d="m 268.998,298.255 0.014,5.262 6.699,-3.868 0.974,-0.565 1.959,-1.13 -0.015,-5.257 -1.944,1.126 c -0.005,0 -0.974,0.56 -0.974,0.56 z"
                   id="path2636" />
              </g>
            </g>
          </g>
          <g
             id="g2648">
            <path
               style="fill:#ea6c78"
               d="m 255.872,282.16 20.437,11.878 v 5.266 l 0.974,-0.565 v -5.262 c -0.005,0 -20.442,-11.878 -20.442,-11.878 z"
               id="path2644" />
            <path
               style="fill:#bf343b"
               d="m 276.309,294.037 v 5.266 l 0.974,-0.565 v -5.262 c -0.005,10e-4 -0.974,0.561 -0.974,0.561 z"
               id="path2646" />
          </g>
          <g
             id="g2654">
            <path
               style="fill:#ea6c78"
               d="m 250.035,285.529 20.437,11.878 v 5.266 l 0.974,-0.565 v -5.262 c -0.005,0 -20.442,-11.878 -20.442,-11.878 z"
               id="path2650" />
            <path
               style="fill:#bf343b"
               d="m 270.472,297.407 v 5.266 l 0.974,-0.565 v -5.262 c -0.004,10e-4 -0.974,0.561 -0.974,0.561 z"
               id="path2652" />
          </g>
          <path
             style="fill:#b8ca62"
             d="m 246.492,293.748 c -1.143,0.66 -1.143,1.729 0,2.389 1.143,0.66 2.995,0.66 4.137,0 1.143,-0.66 1.143,-1.729 0,-2.389 -1.142,-0.66 -2.995,-0.66 -4.137,0 z"
             id="path2656" />
          <path
             style="fill:#b8ca62"
             d="m 271.752,281.314 c -1.143,0.659 -1.143,1.729 0,2.389 1.143,0.66 2.995,0.66 4.138,0 1.142,-0.66 1.142,-1.729 0,-2.389 -1.143,-0.66 -2.995,-0.66 -4.138,0 z"
             id="path2658" />
          <polygon
             style="fill:#b8ca62"
             points="247.839,300.448 246.297,299.558 256.232,293.821 257.775,294.712 "
             id="polygon2660" />
          <polygon
             style="fill:#b8ca62"
             points="251.251,300.867 250.035,300.165 257.867,295.643 259.083,296.346 "
             id="polygon2662" />
        </g>
        <g
           id="g2718">
          <g
             id="g2682">
            <g
               style="enable-background:new"
               id="g2680">
              <g
                 id="g2668">
                <polygon
                   style="fill:#9aa651"
                   points="249.373,303.486 228.939,291.611 228.954,296.87 249.389,308.745 "
                   id="polygon2666" />
              </g>
              <g
                 id="g2674">
                <polygon
                   style="fill:#b8ca62"
                   points="297.598,275.643 249.373,303.487 228.937,291.609 260.817,273.207 277.166,263.77 279.883,265.35 282.235,266.716 284.078,267.787 "
                   id="polygon2670" />
                <polygon
                   style="fill:#eaf6a8"
                   points="291.172,275.634 277.16,267.491 235.366,291.62 249.378,299.764 "
                   id="polygon2672" />
              </g>
              <g
                 id="g2678">
                <polygon
                   style="fill:#747d3d"
                   points="249.373,303.486 249.389,308.745 297.615,280.902 297.6,275.643 "
                   id="polygon2676" />
              </g>
            </g>
          </g>
          <path
             style="fill:#b8ca62"
             d="m 255.857,277.501 c -3.41,1.969 -2.141,5.892 2.832,8.764 4.974,2.872 11.77,3.604 15.179,1.635 3.409,-1.968 2.142,-5.892 -2.832,-8.764 -4.973,-2.871 -11.769,-3.604 -15.179,-1.635 z"
             id="path2684" />
          <g
             id="g2696">
            <g
               style="enable-background:new"
               id="g2694">
              <g
                 id="g2688">
                <path
                   style="fill:#f3f2f2"
                   d="m 249.828,279.546 20.437,11.873 6.713,-3.873 0.97,-0.56 c 0.005,0 1.949,-1.125 1.949,-1.125 l -20.437,-11.878 -1.949,1.126 -0.969,0.56 z"
                   id="path2686" />
              </g>
              <g
                 id="g2692">
                <path
                   style="fill:#eedfcf"
                   d="m 270.266,291.418 0.015,5.262 6.699,-3.868 0.974,-0.565 1.958,-1.13 -0.015,-5.257 -1.944,1.125 c -0.005,0 -0.974,0.56 -0.974,0.56 z"
                   id="path2690" />
              </g>
            </g>
          </g>
          <g
             id="g2702">
            <path
               style="fill:#ea6c78"
               d="m 257.139,275.323 20.438,11.878 v 5.267 l 0.974,-0.565 v -5.262 c -0.005,0 -20.442,-11.878 -20.442,-11.878 z"
               id="path2698" />
            <path
               style="fill:#bf343b"
               d="m 277.577,287.2 v 5.267 l 0.974,-0.565 v -5.262 c -0.005,0 -0.974,0.56 -0.974,0.56 z"
               id="path2700" />
          </g>
          <g
             id="g2708">
            <path
               style="fill:#ea6c78"
               d="m 251.303,278.692 20.437,11.877 v 5.267 l 0.974,-0.565 v -5.262 c -0.005,0 -20.442,-11.878 -20.442,-11.878 z"
               id="path2704" />
            <path
               style="fill:#bf343b"
               d="m 271.74,290.57 v 5.267 l 0.974,-0.565 v -5.262 c -0.004,0 -0.974,0.56 -0.974,0.56 z"
               id="path2706" />
          </g>
          <path
             style="fill:#b8ca62"
             d="m 247.76,286.911 c -1.143,0.659 -1.143,1.729 0,2.389 1.143,0.66 2.995,0.66 4.137,0 1.143,-0.659 1.143,-1.729 0,-2.389 -1.142,-0.66 -2.995,-0.66 -4.137,0 z"
             id="path2710" />
          <path
             style="fill:#b8ca62"
             d="m 273.02,274.477 c -1.143,0.66 -1.143,1.729 0,2.389 1.142,0.66 2.995,0.66 4.138,0 1.143,-0.66 1.143,-1.729 0,-2.389 -1.143,-0.66 -2.995,-0.66 -4.138,0 z"
             id="path2712" />
          <polygon
             style="fill:#b8ca62"
             points="249.107,293.611 247.565,292.72 257.5,286.984 259.043,287.875 "
             id="polygon2714" />
          <polygon
             style="fill:#b8ca62"
             points="252.519,294.03 251.303,293.328 259.135,288.807 260.351,289.509 "
             id="polygon2716" />
        </g>
      </g>
      <g
         id="g2884">
        <g
           id="g2774">
          <g
             id="g2738">
            <g
               style="enable-background:new"
               id="g2736">
              <g
                 id="g2724">
                <polygon
                   style="fill:#9aa651"
                   points="249.373,297.19 228.939,285.314 228.954,290.573 249.389,302.448 "
                   id="polygon2722" />
              </g>
              <g
                 id="g2730">
                <polygon
                   style="fill:#b8ca62"
                   points="297.6,269.346 277.165,257.471 228.939,285.314 249.373,297.19 "
                   id="polygon2726" />
                <polygon
                   style="fill:#a2d96a"
                   points="291.172,269.337 277.16,261.194 235.366,285.323 249.378,293.467 "
                   id="polygon2728" />
              </g>
              <g
                 id="g2734">
                <polygon
                   style="fill:#747d3d"
                   points="249.373,297.19 249.389,302.448 297.615,274.605 297.6,269.346 "
                   id="polygon2732" />
              </g>
            </g>
          </g>
          <path
             style="fill:#b8ca62"
             d="m 255.857,271.204 c -3.41,1.968 -2.141,5.892 2.832,8.764 4.974,2.871 11.77,3.604 15.179,1.635 3.409,-1.969 2.142,-5.892 -2.832,-8.764 -4.973,-2.871 -11.769,-3.603 -15.179,-1.635 z"
             id="path2740" />
          <g
             id="g2752">
            <g
               style="enable-background:new"
               id="g2750">
              <g
                 id="g2744">
                <path
                   style="fill:#f3f2f2"
                   d="m 249.828,273.249 20.437,11.873 6.713,-3.873 0.97,-0.56 c 0.005,0 1.949,-1.125 1.949,-1.125 l -20.437,-11.878 -1.949,1.125 -0.969,0.56 z"
                   id="path2742" />
              </g>
              <g
                 id="g2748">
                <path
                   style="fill:#eedfcf"
                   d="m 270.266,285.122 0.015,5.262 6.699,-3.868 0.974,-0.565 1.958,-1.13 -0.015,-5.257 -1.944,1.125 c -0.005,0 -0.974,0.56 -0.974,0.56 z"
                   id="path2746" />
              </g>
            </g>
          </g>
          <g
             id="g2758">
            <path
               style="fill:#ea6c78"
               d="m 257.139,269.026 20.438,11.878 v 5.266 l 0.974,-0.565 v -5.262 c -0.005,0 -20.442,-11.877 -20.442,-11.877 z"
               id="path2754" />
            <path
               style="fill:#bf343b"
               d="m 277.577,280.903 v 5.266 l 0.974,-0.565 v -5.262 c -0.005,0.001 -0.974,0.561 -0.974,0.561 z"
               id="path2756" />
          </g>
          <g
             id="g2764">
            <path
               style="fill:#ea6c78"
               d="m 251.303,272.396 20.437,11.878 v 5.266 l 0.974,-0.565 v -5.262 c -0.005,0 -20.442,-11.878 -20.442,-11.878 z"
               id="path2760" />
            <path
               style="fill:#bf343b"
               d="m 271.74,284.273 v 5.266 l 0.974,-0.565 v -5.262 c -0.004,0.001 -0.974,0.561 -0.974,0.561 z"
               id="path2762" />
          </g>
          <path
             style="fill:#b8ca62"
             d="m 247.76,280.614 c -1.143,0.66 -1.143,1.729 0,2.389 1.143,0.66 2.995,0.66 4.137,0 1.143,-0.66 1.143,-1.729 0,-2.389 -1.142,-0.66 -2.995,-0.66 -4.137,0 z"
             id="path2766" />
          <path
             style="fill:#b8ca62"
             d="m 273.02,268.18 c -1.143,0.659 -1.143,1.729 0,2.389 1.142,0.66 2.995,0.66 4.138,0 1.143,-0.66 1.143,-1.729 0,-2.389 -1.143,-0.66 -2.995,-0.66 -4.138,0 z"
             id="path2768" />
          <polygon
             style="fill:#b8ca62"
             points="249.107,287.314 247.565,286.424 257.5,280.688 259.043,281.578 "
             id="polygon2770" />
          <polygon
             style="fill:#b8ca62"
             points="252.519,287.733 251.303,287.031 259.135,282.51 260.351,283.212 "
             id="polygon2772" />
        </g>
        <g
           id="g2828">
          <g
             id="g2792">
            <g
               style="enable-background:new"
               id="g2790">
              <g
                 id="g2778">
                <polygon
                   style="fill:#9aa651"
                   points="248.106,291.896 227.671,280.021 227.686,285.28 248.121,297.155 "
                   id="polygon2776" />
              </g>
              <g
                 id="g2784">
                <polygon
                   style="fill:#b8ca62"
                   points="296.332,264.053 275.897,252.178 227.671,280.021 248.106,291.896 "
                   id="polygon2780" />
                <polygon
                   style="fill:#a2d96a"
                   points="289.904,264.044 275.892,255.901 234.098,280.03 248.111,288.174 "
                   id="polygon2782" />
              </g>
              <g
                 id="g2788">
                <polygon
                   style="fill:#747d3d"
                   points="248.106,291.896 248.121,297.155 296.347,269.312 296.332,264.053 "
                   id="polygon2786" />
              </g>
            </g>
          </g>
          <path
             style="fill:#b8ca62"
             d="m 254.589,265.911 c -3.409,1.968 -2.141,5.892 2.832,8.764 4.974,2.872 11.77,3.604 15.179,1.635 3.409,-1.969 2.141,-5.892 -2.832,-8.763 -4.973,-2.873 -11.769,-3.604 -15.179,-1.636 z"
             id="path2794" />
          <g
             id="g2806">
            <g
               style="enable-background:new"
               id="g2804">
              <g
                 id="g2798">
                <path
                   style="fill:#f3f2f2"
                   d="m 248.56,267.956 20.437,11.873 6.713,-3.873 0.97,-0.56 c 0.005,0 1.949,-1.126 1.949,-1.126 l -20.438,-11.877 -1.949,1.125 -0.969,0.56 z"
                   id="path2796" />
              </g>
              <g
                 id="g2802">
                <path
                   style="fill:#eedfcf"
                   d="m 268.998,279.828 0.014,5.262 6.699,-3.868 0.974,-0.565 1.959,-1.13 -0.015,-5.257 -1.944,1.126 c -0.005,0 -0.974,0.56 -0.974,0.56 z"
                   id="path2800" />
              </g>
            </g>
          </g>
          <g
             id="g2812">
            <path
               style="fill:#ea6c78"
               d="m 255.872,263.733 20.437,11.878 v 5.267 l 0.974,-0.565 v -5.262 c -0.005,0 -20.442,-11.878 -20.442,-11.878 z"
               id="path2808" />
            <path
               style="fill:#bf343b"
               d="m 276.309,275.61 v 5.267 l 0.974,-0.565 v -5.262 c -0.005,0 -0.974,0.56 -0.974,0.56 z"
               id="path2810" />
          </g>
          <g
             id="g2818">
            <path
               style="fill:#ea6c78"
               d="m 250.035,267.102 20.437,11.878 v 5.266 l 0.974,-0.565 v -5.262 c -0.005,0 -20.442,-11.878 -20.442,-11.878 z"
               id="path2814" />
            <path
               style="fill:#bf343b"
               d="m 270.472,278.98 v 5.266 l 0.974,-0.565 v -5.262 c -0.004,0.001 -0.974,0.561 -0.974,0.561 z"
               id="path2816" />
          </g>
          <path
             style="fill:#b8ca62"
             d="m 246.492,275.321 c -1.143,0.66 -1.143,1.729 0,2.389 1.143,0.66 2.995,0.66 4.137,0 1.143,-0.66 1.143,-1.729 0,-2.389 -1.142,-0.66 -2.995,-0.66 -4.137,0 z"
             id="path2820" />
          <path
             style="fill:#b8ca62"
             d="m 271.752,262.887 c -1.143,0.66 -1.143,1.729 0,2.389 1.143,0.66 2.995,0.66 4.138,0 1.142,-0.66 1.142,-1.729 0,-2.389 -1.143,-0.66 -2.995,-0.66 -4.138,0 z"
             id="path2822" />
          <polygon
             style="fill:#b8ca62"
             points="247.839,282.021 246.297,281.131 256.232,275.394 257.775,276.285 "
             id="polygon2824" />
          <polygon
             style="fill:#b8ca62"
             points="251.251,282.44 250.035,281.738 257.867,277.216 259.083,277.919 "
             id="polygon2826" />
        </g>
        <g
           id="g2882">
          <g
             id="g2846">
            <g
               style="enable-background:new"
               id="g2844">
              <g
                 id="g2832">
                <polygon
                   style="fill:#9aa651"
                   points="249.373,285.059 228.939,273.184 228.954,278.443 249.389,290.318 "
                   id="polygon2830" />
              </g>
              <g
                 id="g2838">
                <polygon
                   style="fill:#b8ca62"
                   points="297.598,257.216 249.373,285.06 228.937,273.182 260.817,254.78 277.166,245.343 279.883,246.923 282.235,248.289 284.078,249.36 "
                   id="polygon2834" />
                <polygon
                   style="fill:#eaf6a8"
                   points="291.172,257.207 277.16,249.064 235.366,273.193 249.378,281.337 "
                   id="polygon2836" />
              </g>
              <g
                 id="g2842">
                <polygon
                   style="fill:#747d3d"
                   points="249.373,285.059 249.389,290.318 297.615,262.475 297.6,257.216 "
                   id="polygon2840" />
              </g>
            </g>
          </g>
          <path
             style="fill:#b8ca62"
             d="m 255.857,259.074 c -3.41,1.968 -2.141,5.892 2.832,8.764 4.974,2.872 11.77,3.604 15.179,1.635 3.409,-1.969 2.142,-5.892 -2.832,-8.764 -4.973,-2.871 -11.769,-3.604 -15.179,-1.635 z"
             id="path2848" />
          <g
             id="g2860">
            <g
               style="enable-background:new"
               id="g2858">
              <g
                 id="g2852">
                <path
                   style="fill:#f3f2f2"
                   d="m 249.828,261.119 20.437,11.873 6.713,-3.873 0.97,-0.56 c 0.005,0 1.949,-1.125 1.949,-1.125 l -20.437,-11.878 -1.949,1.126 -0.969,0.56 z"
                   id="path2850" />
              </g>
              <g
                 id="g2856">
                <path
                   style="fill:#eedfcf"
                   d="m 270.266,272.991 0.015,5.262 6.699,-3.868 0.974,-0.565 1.958,-1.13 -0.015,-5.257 -1.944,1.125 c -0.005,0 -0.974,0.56 -0.974,0.56 z"
                   id="path2854" />
              </g>
            </g>
          </g>
          <g
             id="g2866">
            <path
               style="fill:#ea6c78"
               d="m 257.139,256.896 20.438,11.878 v 5.267 l 0.974,-0.565 v -5.262 c -0.005,0 -20.442,-11.878 -20.442,-11.878 z"
               id="path2862" />
            <path
               style="fill:#bf343b"
               d="m 277.577,268.773 v 5.267 l 0.974,-0.565 v -5.262 c -0.005,0 -0.974,0.56 -0.974,0.56 z"
               id="path2864" />
          </g>
          <g
             id="g2872">
            <path
               style="fill:#ea6c78"
               d="m 251.303,260.265 20.437,11.878 v 5.266 l 0.974,-0.565 v -5.262 c -0.005,0 -20.442,-11.878 -20.442,-11.878 z"
               id="path2868" />
            <path
               style="fill:#bf343b"
               d="m 271.74,272.143 v 5.266 l 0.974,-0.565 v -5.262 c -0.004,0.001 -0.974,0.561 -0.974,0.561 z"
               id="path2870" />
          </g>
          <path
             style="fill:#b8ca62"
             d="m 247.76,268.484 c -1.143,0.659 -1.143,1.729 0,2.389 1.143,0.66 2.995,0.66 4.137,0 1.143,-0.66 1.143,-1.729 0,-2.389 -1.142,-0.66 -2.995,-0.66 -4.137,0 z"
             id="path2874" />
          <path
             style="fill:#b8ca62"
             d="m 273.02,256.05 c -1.143,0.66 -1.143,1.729 0,2.389 1.142,0.66 2.995,0.66 4.138,0 1.143,-0.659 1.143,-1.729 0,-2.389 -1.143,-0.66 -2.995,-0.66 -4.138,0 z"
             id="path2876" />
          <polygon
             style="fill:#b8ca62"
             points="249.107,275.184 247.565,274.293 257.5,268.557 259.043,269.448 "
             id="polygon2878" />
          <polygon
             style="fill:#b8ca62"
             points="252.519,275.603 251.303,274.901 259.135,270.38 260.351,271.082 "
             id="polygon2880" />
        </g>
      </g>
      <g
         id="g3048">
        <g
           id="g2938">
          <g
             id="g2902">
            <g
               style="enable-background:new"
               id="g2900">
              <g
                 id="g2888">
                <polygon
                   style="fill:#9aa651"
                   points="249.373,278.451 228.939,266.576 228.954,271.835 249.389,283.71 "
                   id="polygon2886" />
              </g>
              <g
                 id="g2894">
                <polygon
                   style="fill:#b8ca62"
                   points="297.6,250.608 277.165,238.733 228.939,266.576 249.373,278.451 "
                   id="polygon2890" />
                <polygon
                   style="fill:#a2d96a"
                   points="291.172,250.599 277.16,242.456 235.366,266.585 249.378,274.729 "
                   id="polygon2892" />
              </g>
              <g
                 id="g2898">
                <polygon
                   style="fill:#747d3d"
                   points="249.373,278.451 249.389,283.71 297.615,255.867 297.6,250.608 "
                   id="polygon2896" />
              </g>
            </g>
          </g>
          <path
             style="fill:#b8ca62"
             d="m 255.857,252.466 c -3.41,1.968 -2.141,5.892 2.832,8.764 4.974,2.871 11.77,3.604 15.179,1.635 3.409,-1.968 2.142,-5.892 -2.832,-8.764 -4.973,-2.871 -11.769,-3.604 -15.179,-1.635 z"
             id="path2904" />
          <g
             id="g2916">
            <g
               style="enable-background:new"
               id="g2914">
              <g
                 id="g2908">
                <path
                   style="fill:#f3f2f2"
                   d="m 249.828,254.511 20.437,11.873 6.713,-3.873 0.97,-0.56 c 0.005,0 1.949,-1.126 1.949,-1.126 l -20.437,-11.877 -1.949,1.125 -0.969,0.56 z"
                   id="path2906" />
              </g>
              <g
                 id="g2912">
                <path
                   style="fill:#eedfcf"
                   d="m 270.266,266.384 0.015,5.261 6.699,-3.868 0.974,-0.565 1.958,-1.13 -0.015,-5.257 -1.944,1.126 c -0.005,0 -0.974,0.56 -0.974,0.56 z"
                   id="path2910" />
              </g>
            </g>
          </g>
          <g
             id="g2922">
            <path
               style="fill:#ea6c78"
               d="m 257.139,250.288 20.438,11.878 v 5.266 l 0.974,-0.565 v -5.262 c -0.005,0 -20.442,-11.877 -20.442,-11.877 z"
               id="path2918" />
            <path
               style="fill:#bf343b"
               d="m 277.577,262.165 v 5.266 l 0.974,-0.565 v -5.262 c -0.005,0.001 -0.974,0.561 -0.974,0.561 z"
               id="path2920" />
          </g>
          <g
             id="g2928">
            <path
               style="fill:#ea6c78"
               d="m 251.303,253.657 20.437,11.878 v 5.266 l 0.974,-0.565 v -5.262 c -0.005,0 -20.442,-11.878 -20.442,-11.878 z"
               id="path2924" />
            <path
               style="fill:#bf343b"
               d="m 271.74,265.535 v 5.266 l 0.974,-0.565 v -5.262 c -0.004,0.001 -0.974,0.561 -0.974,0.561 z"
               id="path2926" />
          </g>
          <path
             style="fill:#b8ca62"
             d="m 247.76,261.876 c -1.143,0.66 -1.143,1.729 0,2.389 1.143,0.66 2.995,0.66 4.137,0 1.143,-0.66 1.143,-1.729 0,-2.389 -1.142,-0.66 -2.995,-0.66 -4.137,0 z"
             id="path2930" />
          <path
             style="fill:#b8ca62"
             d="m 273.02,249.442 c -1.143,0.66 -1.143,1.729 0,2.389 1.142,0.66 2.995,0.66 4.138,0 1.143,-0.66 1.143,-1.729 0,-2.389 -1.143,-0.66 -2.995,-0.66 -4.138,0 z"
             id="path2932" />
          <polygon
             style="fill:#b8ca62"
             points="249.107,268.576 247.565,267.685 257.5,261.949 259.043,262.84 "
             id="polygon2934" />
          <polygon
             style="fill:#b8ca62"
             points="252.519,268.995 251.303,268.293 259.135,263.772 260.351,264.474 "
             id="polygon2936" />
        </g>
        <g
           id="g2992">
          <g
             id="g2956">
            <g
               style="enable-background:new"
               id="g2954">
              <g
                 id="g2942">
                <polygon
                   style="fill:#9aa651"
                   points="248.106,273.158 227.671,261.283 227.686,266.542 248.121,278.417 "
                   id="polygon2940" />
              </g>
              <g
                 id="g2948">
                <polygon
                   style="fill:#b8ca62"
                   points="296.332,245.315 275.897,233.44 227.671,261.283 248.106,273.158 "
                   id="polygon2944" />
                <polygon
                   style="fill:#a2d96a"
                   points="289.904,245.306 275.892,237.163 234.098,261.292 248.111,269.436 "
                   id="polygon2946" />
              </g>
              <g
                 id="g2952">
                <polygon
                   style="fill:#747d3d"
                   points="248.106,273.158 248.121,278.417 296.347,250.574 296.332,245.315 "
                   id="polygon2950" />
              </g>
            </g>
          </g>
          <path
             style="fill:#b8ca62"
             d="m 254.589,247.173 c -3.409,1.969 -2.141,5.892 2.832,8.764 4.974,2.871 11.77,3.604 15.179,1.635 3.409,-1.969 2.141,-5.892 -2.832,-8.764 -4.973,-2.872 -11.769,-3.604 -15.179,-1.635 z"
             id="path2958" />
          <g
             id="g2970">
            <g
               style="enable-background:new"
               id="g2968">
              <g
                 id="g2962">
                <path
                   style="fill:#f3f2f2"
                   d="m 248.56,249.218 20.437,11.873 6.713,-3.873 0.97,-0.56 c 0.005,0 1.949,-1.125 1.949,-1.125 l -20.438,-11.877 -1.949,1.125 -0.969,0.56 z"
                   id="path2960" />
              </g>
              <g
                 id="g2966">
                <path
                   style="fill:#eedfcf"
                   d="m 268.998,261.09 0.014,5.262 6.699,-3.868 0.974,-0.565 1.959,-1.13 -0.015,-5.257 -1.944,1.125 c -0.005,0 -0.974,0.56 -0.974,0.56 z"
                   id="path2964" />
              </g>
            </g>
          </g>
          <g
             id="g2976">
            <path
               style="fill:#ea6c78"
               d="m 255.872,244.995 20.437,11.878 v 5.267 l 0.974,-0.565 v -5.262 c -0.005,0 -20.442,-11.878 -20.442,-11.878 z"
               id="path2972" />
            <path
               style="fill:#bf343b"
               d="m 276.309,256.872 v 5.267 l 0.974,-0.565 v -5.262 c -0.005,0 -0.974,0.56 -0.974,0.56 z"
               id="path2974" />
          </g>
          <g
             id="g2982">
            <path
               style="fill:#ea6c78"
               d="m 250.035,248.364 20.437,11.878 v 5.267 l 0.974,-0.565 v -5.262 c -0.005,0 -20.442,-11.878 -20.442,-11.878 z"
               id="path2978" />
            <path
               style="fill:#bf343b"
               d="m 270.472,260.242 v 5.267 l 0.974,-0.565 v -5.262 c -0.004,0 -0.974,0.56 -0.974,0.56 z"
               id="path2980" />
          </g>
          <path
             style="fill:#b8ca62"
             d="m 246.492,256.582 c -1.143,0.66 -1.143,1.729 0,2.389 1.143,0.659 2.995,0.659 4.137,0 1.143,-0.66 1.143,-1.729 0,-2.389 -1.142,-0.659 -2.995,-0.659 -4.137,0 z"
             id="path2984" />
          <path
             style="fill:#b8ca62"
             d="m 271.752,244.149 c -1.143,0.66 -1.143,1.729 0,2.389 1.143,0.66 2.995,0.66 4.138,0 1.142,-0.66 1.142,-1.729 0,-2.389 -1.143,-0.66 -2.995,-0.66 -4.138,0 z"
             id="path2986" />
          <polygon
             style="fill:#b8ca62"
             points="247.839,263.283 246.297,262.392 256.232,256.656 257.775,257.547 "
             id="polygon2988" />
          <polygon
             style="fill:#b8ca62"
             points="251.251,263.702 250.035,263 257.867,258.478 259.083,259.181 "
             id="polygon2990" />
        </g>
        <g
           id="g3046">
          <g
             id="g3010">
            <g
               style="enable-background:new"
               id="g3008">
              <g
                 id="g2996">
                <polygon
                   style="fill:#9aa651"
                   points="249.373,266.321 228.939,254.446 228.954,259.705 249.389,271.58 "
                   id="polygon2994" />
              </g>
              <g
                 id="g3002">
                <polygon
                   style="fill:#b8ca62"
                   points="297.598,238.478 249.373,266.322 228.937,254.444 260.817,236.042 277.166,226.605 279.883,228.185 282.235,229.551 284.078,230.622 "
                   id="polygon2998" />
                <polygon
                   style="fill:#eaf6a8"
                   points="291.172,238.469 277.16,230.326 235.366,254.455 249.378,262.599 "
                   id="polygon3000" />
              </g>
              <g
                 id="g3006">
                <polygon
                   style="fill:#747d3d"
                   points="249.373,266.321 249.389,271.58 297.615,243.736 297.6,238.478 "
                   id="polygon3004" />
              </g>
            </g>
          </g>
          <path
             style="fill:#b8ca62"
             d="m 255.857,240.336 c -3.41,1.969 -2.141,5.892 2.832,8.764 4.974,2.872 11.77,3.604 15.179,1.635 3.409,-1.969 2.142,-5.892 -2.832,-8.764 -4.973,-2.872 -11.769,-3.604 -15.179,-1.635 z"
             id="path3012" />
          <g
             id="g3024">
            <g
               style="enable-background:new"
               id="g3022">
              <g
                 id="g3016">
                <path
                   style="fill:#f3f2f2"
                   d="m 249.828,242.381 20.437,11.873 6.713,-3.873 0.97,-0.56 c 0.005,0 1.949,-1.125 1.949,-1.125 l -20.437,-11.878 -1.949,1.126 -0.969,0.56 z"
                   id="path3014" />
              </g>
              <g
                 id="g3020">
                <path
                   style="fill:#eedfcf"
                   d="m 270.266,254.253 0.015,5.262 6.699,-3.868 0.974,-0.565 1.958,-1.13 -0.015,-5.257 -1.944,1.125 c -0.005,0 -0.974,0.56 -0.974,0.56 z"
                   id="path3018" />
              </g>
            </g>
          </g>
          <g
             id="g3030">
            <path
               style="fill:#ea6c78"
               d="m 257.139,238.158 20.438,11.878 v 5.266 l 0.974,-0.565 v -5.262 c -0.005,0 -20.442,-11.878 -20.442,-11.878 z"
               id="path3026" />
            <path
               style="fill:#bf343b"
               d="m 277.577,250.035 v 5.266 l 0.974,-0.565 v -5.262 c -0.005,0.001 -0.974,0.561 -0.974,0.561 z"
               id="path3028" />
          </g>
          <g
             id="g3036">
            <path
               style="fill:#ea6c78"
               d="m 251.303,241.527 20.437,11.878 v 5.266 l 0.974,-0.565 v -5.262 c -0.005,0 -20.442,-11.878 -20.442,-11.878 z"
               id="path3032" />
            <path
               style="fill:#bf343b"
               d="m 271.74,253.405 v 5.266 l 0.974,-0.565 v -5.262 c -0.004,0 -0.974,0.561 -0.974,0.561 z"
               id="path3034" />
          </g>
          <path
             style="fill:#b8ca62"
             d="m 247.76,249.745 c -1.143,0.66 -1.143,1.729 0,2.389 1.143,0.66 2.995,0.66 4.137,0 1.143,-0.66 1.143,-1.729 0,-2.389 -1.142,-0.659 -2.995,-0.659 -4.137,0 z"
             id="path3038" />
          <path
             style="fill:#b8ca62"
             d="m 273.02,237.312 c -1.143,0.66 -1.143,1.729 0,2.389 1.142,0.66 2.995,0.66 4.138,0 1.143,-0.66 1.143,-1.729 0,-2.389 -1.143,-0.66 -2.995,-0.66 -4.138,0 z"
             id="path3040" />
          <polygon
             style="fill:#b8ca62"
             points="249.107,256.446 247.565,255.555 257.5,249.819 259.043,250.71 "
             id="polygon3042" />
          <polygon
             style="fill:#b8ca62"
             points="252.519,256.865 251.303,256.163 259.135,251.641 260.351,252.344 "
             id="polygon3044" />
        </g>
      </g>
      <g
         id="g3102">
        <g
           id="g3066">
          <g
             style="enable-background:new"
             id="g3064">
            <g
               id="g3052">
              <polygon
                 style="fill:#9aa651"
                 points="249.389,265.37 249.373,260.111 228.939,248.236 228.954,253.494 "
                 id="polygon3050" />
            </g>
            <g
               id="g3058">
              <polygon
                 style="fill:#b8ca62"
                 points="249.373,260.111 297.6,232.268 277.165,220.392 228.939,248.236 "
                 id="polygon3054" />
              <polygon
                 style="fill:#a2d96a"
                 points="249.378,256.388 291.172,232.258 277.16,224.115 235.366,248.245 "
                 id="polygon3056" />
            </g>
            <g
               id="g3062">
              <polygon
                 style="fill:#747d3d"
                 points="297.6,232.268 249.373,260.111 249.389,265.37 297.615,237.526 "
                 id="polygon3060" />
            </g>
          </g>
        </g>
        <path
           style="fill:#b8ca62"
           d="m 255.857,234.126 c -3.41,1.968 -2.141,5.892 2.832,8.764 4.974,2.871 11.77,3.604 15.179,1.635 3.409,-1.969 2.142,-5.892 -2.832,-8.764 -4.973,-2.872 -11.769,-3.604 -15.179,-1.635 z"
           id="path3068" />
        <g
           id="g3080">
          <g
             style="enable-background:new"
             id="g3078">
            <g
               id="g3072">
              <path
                 style="fill:#f3f2f2"
                 d="m 249.828,236.17 20.437,11.873 6.713,-3.873 0.97,-0.56 c 0.005,0 1.949,-1.126 1.949,-1.126 l -20.437,-11.878 -1.949,1.125 -0.969,0.56 z"
                 id="path3070" />
            </g>
            <g
               id="g3076">
              <path
                 style="fill:#eedfcf"
                 d="m 270.266,248.043 0.015,5.262 6.699,-3.868 0.974,-0.565 1.958,-1.13 -0.015,-5.257 -1.944,1.126 c -0.005,0 -0.974,0.56 -0.974,0.56 z"
                 id="path3074" />
            </g>
          </g>
        </g>
        <g
           id="g3086">
          <path
             style="fill:#ea6c78"
             d="m 257.139,231.947 20.438,11.878 v 5.266 l 0.974,-0.565 v -5.262 c -0.005,0 -20.442,-11.877 -20.442,-11.877 z"
             id="path3082" />
          <path
             style="fill:#bf343b"
             d="m 277.577,243.825 v 5.266 l 0.974,-0.565 v -5.262 c -0.005,10e-4 -0.974,0.561 -0.974,0.561 z"
             id="path3084" />
        </g>
        <g
           id="g3092">
          <path
             style="fill:#ea6c78"
             d="m 251.303,235.317 20.437,11.878 v 5.266 l 0.974,-0.565 v -5.262 c -0.005,0 -20.442,-11.877 -20.442,-11.877 z"
             id="path3088" />
          <path
             style="fill:#bf343b"
             d="m 271.74,247.195 v 5.266 l 0.974,-0.565 v -5.262 c -0.004,0 -0.974,0.561 -0.974,0.561 z"
             id="path3090" />
        </g>
        <path
           style="fill:#b8ca62"
           d="m 247.76,243.535 c -1.143,0.66 -1.143,1.729 0,2.389 1.143,0.66 2.995,0.66 4.137,0 1.143,-0.66 1.143,-1.729 0,-2.389 -1.142,-0.659 -2.995,-0.659 -4.137,0 z"
           id="path3094" />
        <path
           style="fill:#b8ca62"
           d="m 273.02,231.102 c -1.143,0.66 -1.143,1.729 0,2.389 1.142,0.66 2.995,0.66 4.138,0 1.143,-0.66 1.143,-1.729 0,-2.389 -1.143,-0.66 -2.995,-0.66 -4.138,0 z"
           id="path3096" />
        <polygon
           style="fill:#b8ca62"
           points="259.043,244.5 249.107,250.236 247.565,249.345 257.5,243.609 "
           id="polygon3098" />
        <polygon
           style="fill:#b8ca62"
           points="260.351,246.133 252.519,250.655 251.303,249.953 259.135,245.431 "
           id="polygon3100" />
      </g>
      <g
         id="g3156">
        <g
           id="g3120">
          <g
             style="enable-background:new"
             id="g3118">
            <g
               id="g3106">
              <polygon
                 style="fill:#9aa651"
                 points="248.121,260.077 248.106,254.818 227.671,242.943 227.686,248.201 "
                 id="polygon3104" />
            </g>
            <g
               id="g3112">
              <polygon
                 style="fill:#b8ca62"
                 points="248.106,254.818 296.332,226.974 275.897,215.099 227.671,242.943 "
                 id="polygon3108" />
              <polygon
                 style="fill:#a2d96a"
                 points="248.111,251.095 289.904,226.965 275.892,218.822 234.098,242.952 "
                 id="polygon3110" />
            </g>
            <g
               id="g3116">
              <polygon
                 style="fill:#747d3d"
                 points="296.332,226.974 248.106,254.818 248.121,260.077 296.347,232.233 "
                 id="polygon3114" />
            </g>
          </g>
        </g>
        <path
           style="fill:#b8ca62"
           d="m 254.589,228.832 c -3.409,1.968 -2.141,5.892 2.832,8.764 4.973,2.872 11.77,3.604 15.179,1.635 3.409,-1.969 2.141,-5.892 -2.832,-8.764 -4.973,-2.871 -11.769,-3.603 -15.179,-1.635 z"
           id="path3122" />
        <g
           id="g3134">
          <g
             style="enable-background:new"
             id="g3132">
            <g
               id="g3126">
              <path
                 style="fill:#f3f2f2"
                 d="m 248.56,230.877 20.437,11.873 6.713,-3.873 0.97,-0.56 c 0.005,0 1.949,-1.126 1.949,-1.126 l -20.438,-11.877 -1.949,1.125 -0.969,0.56 z"
                 id="path3124" />
            </g>
            <g
               id="g3130">
              <path
                 style="fill:#eedfcf"
                 d="m 268.998,242.75 0.014,5.262 6.699,-3.868 0.974,-0.565 1.959,-1.13 -0.015,-5.257 -1.944,1.126 c -0.005,0 -0.974,0.56 -0.974,0.56 z"
                 id="path3128" />
            </g>
          </g>
        </g>
        <g
           id="g3140">
          <path
             style="fill:#ea6c78"
             d="m 255.872,226.654 20.437,11.878 v 5.266 l 0.974,-0.565 v -5.262 c -0.005,0 -20.442,-11.878 -20.442,-11.878 z"
             id="path3136" />
          <path
             style="fill:#bf343b"
             d="m 276.309,238.532 v 5.266 l 0.974,-0.565 v -5.262 c -0.005,0 -0.974,0.561 -0.974,0.561 z"
             id="path3138" />
        </g>
        <g
           id="g3146">
          <path
             style="fill:#ea6c78"
             d="m 250.035,230.024 20.437,11.878 v 5.266 l 0.974,-0.565 v -5.262 c -0.005,0 -20.442,-11.878 -20.442,-11.878 z"
             id="path3142" />
          <path
             style="fill:#bf343b"
             d="m 270.472,241.902 v 5.266 l 0.974,-0.565 v -5.262 c -0.004,0 -0.974,0.561 -0.974,0.561 z"
             id="path3144" />
        </g>
        <path
           style="fill:#b8ca62"
           d="m 246.492,238.242 c -1.143,0.66 -1.143,1.729 0,2.389 1.143,0.66 2.995,0.66 4.137,0 1.143,-0.66 1.143,-1.729 0,-2.389 -1.142,-0.66 -2.995,-0.66 -4.137,0 z"
           id="path3148" />
        <path
           style="fill:#b8ca62"
           d="m 271.752,225.808 c -1.143,0.66 -1.143,1.729 0,2.389 1.143,0.66 2.995,0.66 4.138,0 1.142,-0.66 1.142,-1.729 0,-2.389 -1.143,-0.659 -2.995,-0.659 -4.138,0 z"
           id="path3150" />
        <polygon
           style="fill:#b8ca62"
           points="257.775,239.206 247.839,244.943 246.297,244.052 256.232,238.316 "
           id="polygon3152" />
        <polygon
           style="fill:#b8ca62"
           points="259.083,240.84 251.251,245.362 250.035,244.66 257.867,240.138 "
           id="polygon3154" />
      </g>
      <g
         id="g3210">
        <g
           id="g3174">
          <g
             style="enable-background:new"
             id="g3172">
            <g
               id="g3160">
              <polygon
                 style="fill:#9aa651"
                 points="249.389,253.24 249.373,247.981 228.939,236.106 228.954,241.364 "
                 id="polygon3158" />
            </g>
            <g
               id="g3166">
              <polygon
                 style="fill:#b8ca62"
                 points="284.078,212.281 297.598,220.138 249.373,247.982 228.937,236.104 260.817,217.701 277.166,208.264 279.883,209.845 282.235,211.21 "
                 id="polygon3162" />
              <polygon
                 style="fill:#eaf6a8"
                 points="249.378,244.258 291.172,220.128 277.16,211.985 235.366,236.115 "
                 id="polygon3164" />
            </g>
            <g
               id="g3170">
              <polygon
                 style="fill:#747d3d"
                 points="297.6,220.137 249.373,247.981 249.389,253.24 297.615,225.396 "
                 id="polygon3168" />
            </g>
          </g>
        </g>
        <path
           style="fill:#b8ca62"
           d="m 255.857,221.995 c -3.41,1.968 -2.141,5.892 2.832,8.764 4.974,2.872 11.77,3.604 15.179,1.635 3.409,-1.969 2.142,-5.892 -2.832,-8.764 -4.973,-2.871 -11.769,-3.603 -15.179,-1.635 z"
           id="path3176" />
        <g
           id="g3188">
          <g
             style="enable-background:new"
             id="g3186">
            <g
               id="g3180">
              <path
                 style="fill:#f3f2f2"
                 d="m 249.828,224.04 20.437,11.873 6.713,-3.873 0.97,-0.56 c 0.005,0 1.949,-1.125 1.949,-1.125 l -20.437,-11.878 -1.949,1.126 -0.969,0.56 z"
                 id="path3178" />
            </g>
            <g
               id="g3184">
              <path
                 style="fill:#eedfcf"
                 d="m 270.266,235.913 0.015,5.262 6.699,-3.868 0.974,-0.565 1.958,-1.13 -0.015,-5.257 -1.944,1.125 c -0.005,0 -0.974,0.56 -0.974,0.56 z"
                 id="path3182" />
            </g>
          </g>
        </g>
        <g
           id="g3194">
          <path
             style="fill:#ea6c78"
             d="m 257.139,219.817 20.438,11.878 v 5.266 l 0.974,-0.565 v -5.262 c -0.005,0 -20.442,-11.878 -20.442,-11.878 z"
             id="path3190" />
          <path
             style="fill:#bf343b"
             d="m 277.577,231.695 v 5.266 l 0.974,-0.565 v -5.262 c -0.005,0 -0.974,0.561 -0.974,0.561 z"
             id="path3192" />
        </g>
        <g
           id="g3200">
          <path
             style="fill:#ea6c78"
             d="m 251.303,223.187 20.437,11.878 v 5.266 l 0.974,-0.565 v -5.262 c -0.005,0 -20.442,-11.878 -20.442,-11.878 z"
             id="path3196" />
          <path
             style="fill:#bf343b"
             d="m 271.74,235.064 v 5.266 l 0.974,-0.565 v -5.262 c -0.004,0.001 -0.974,0.561 -0.974,0.561 z"
             id="path3198" />
        </g>
        <path
           style="fill:#b8ca62"
           d="m 247.76,231.405 c -1.143,0.66 -1.143,1.729 0,2.389 1.143,0.66 2.995,0.66 4.137,0 1.143,-0.66 1.143,-1.729 0,-2.389 -1.142,-0.66 -2.995,-0.66 -4.137,0 z"
           id="path3202" />
        <path
           style="fill:#b8ca62"
           d="m 273.02,218.971 c -1.143,0.66 -1.143,1.729 0,2.389 1.142,0.66 2.995,0.66 4.138,0 1.143,-0.66 1.143,-1.729 0,-2.389 -1.143,-0.659 -2.995,-0.659 -4.138,0 z"
           id="path3204" />
        <polygon
           style="fill:#b8ca62"
           points="259.043,232.369 249.107,238.106 247.565,237.215 257.5,231.479 "
           id="polygon3206" />
        <polygon
           style="fill:#b8ca62"
           points="260.351,234.003 252.519,238.525 251.303,237.823 259.135,233.301 "
           id="polygon3208" />
      </g>
      <g
         id="g3270">
        <path
           style="fill:#eedfcf"
           d="m 222.054,252.019 c 0,0 -1.294,0.153 -2.078,-0.253 l -1.012,2.642 -9.209,-4.232 c -1.771,-0.963 -3.455,-1.503 -4.848,-0.614 l 2.201,4.929 c 0,0 10.283,5.506 14.297,3.543 2.198,-1.108 1.108,-3.79 0.649,-6.015 z"
           id="path3212" />
        <path
           style="fill:#34559c"
           d="m 204.685,313.502 c -0.221,0.793 -0.518,2.928 -0.495,3.751 0.055,1.954 2.424,1.653 3.466,1.598 3.039,-0.161 5.94,2.192 8.907,1.512 1.299,-0.298 1.472,-1.098 1.103,-2.275 -0.706,-2.254 -4.525,-1.773 -6.451,-2.6 -1.693,-0.728 -2.625,-2.277 -3.07,-4.065 0.008,0.034 -2.644,0.538 -2.864,0.707 -0.542,0.412 -0.422,0.749 -0.596,1.372 z"
           id="path3214" />
        <path
           style="fill:#ffb2a3"
           d="m 210.181,297.95 c -0.371,1.016 -0.664,2.156 -0.892,3.334 -0.156,0.788 -0.28,1.602 -0.384,2.403 -0.514,4.109 -0.417,7.964 -0.417,7.964 l -3.803,0.977 c 0,0 -0.046,-0.508 -0.742,-4.845 -0.163,-1.035 -0.365,-2.292 -0.612,-3.809 -0.046,-0.273 -0.085,-0.54 -0.111,-0.801 -0.456,-4.096 0.925,-6.694 1.341,-9.13 0.163,-0.931 0.189,-1.823 -0.072,-2.761 -0.521,-1.895 -1.263,-5.678 -1.849,-8.856 -0.547,-2.878 -0.951,-5.255 -0.951,-5.255 0,0 7.372,-6.864 9.019,-0.059 1.648,6.798 2.064,11.337 -0.527,20.838 z"
           id="path3216" />
        <path
           style="fill:#ffb2a3"
           d="m 214.41,315.796 c -1.114,-0.349 -2.224,-0.545 -3.196,-1.184 -1.708,-1.123 -2.683,-3.345 -3.129,-5.133 0.008,0.034 -2.585,1.606 -2.806,1.775 -0.54,0.413 -0.421,0.75 -0.595,1.373 -0.104,0.375 -0.225,0.927 -0.321,1.491 2.168,1.934 5.231,3.477 7.84,3.101 0.833,-0.12 1.179,-1.022 2.207,-1.423 z"
           id="path3218" />
        <path
           style="fill:#34559c"
           d="m 217.031,317.246 c -0.829,-0.79 -1.726,-1.169 -2.621,-1.45 -1.155,0.344 -1.316,1.362 -2.207,1.423 -3.238,0.223 -7.508,-2.031 -7.722,-3.729 -0.293,0.952 -0.303,1.907 -0.291,2.342 0.023,0.823 0.401,1.696 1.144,2.05 0.708,0.337 1.537,0.136 2.32,0.094 3.039,-0.161 5.94,2.192 8.907,1.512 1.3,-0.298 1.198,-1.549 0.47,-2.242 z"
           id="path3220" />
        <path
           style="fill:#ffb2a3"
           d="m 209.289,301.284 c -0.156,0.788 -0.28,1.602 -0.384,2.403 -0.573,0.397 -1.25,0.638 -1.869,0.97 -0.755,0.397 -1.433,0.938 -1.993,1.582 -0.274,0.313 -0.664,1.237 -1.1,1.543 -0.163,-1.035 -0.365,-2.292 -0.612,-3.809 -0.046,-0.273 -0.085,-0.54 -0.111,-0.801 0.397,-0.462 0.977,-0.703 1.543,-0.905 1.458,-0.521 2.982,-0.853 4.526,-0.983 z"
           id="path3222" />
        <path
           style="fill:#34559c"
           d="m 200.055,332.231 c -0.33,-0.971 -3.447,-3.076 -4.935,-6.547 h -5.218 c -0.657,1.928 0.439,2.567 1.333,3.735 1.749,2.282 1.064,4.6 7.308,4.798 0.436,0.014 0.922,0.009 1.236,-0.293 0.298,-0.286 0.409,-1.303 0.276,-1.693 z"
           id="path3224" />
        <path
           style="fill:#ffb2a3"
           d="m 205.661,285.838 c 0.026,2.533 -0.384,5.333 -1.094,8.185 -0.762,3.067 -1.849,6.167 -3.093,9.032 -0.606,1.387 -1.25,2.722 -1.902,3.972 -0.332,0.619 -0.664,1.224 -0.996,1.797 -3.66,6.356 -4.063,13.844 -4.063,13.844 h -3.341 c 0,0 0.241,-1.146 -0.488,-9.182 -0.065,-0.749 -0.085,-1.446 -0.046,-2.09 0.26,-5.392 3.647,-7.345 4.493,-9.996 0.137,-0.43 0.208,-0.879 0.189,-1.367 -0.156,-3.823 0.449,-14.951 0.449,-14.951 0,0 3.959,-2.605 6.87,-2.657 1.674,-0.025 2.996,0.782 3.022,3.413 z"
           id="path3226" />
        <path
           style="fill:#ffb2a3"
           d="m 194.243,329.274 c 0.805,0.402 2.204,-0.394 3.165,-0.883 -1.951,-2.515 -3.563,-5.822 -2.951,-8.901 -0.02,0.104 -1.565,-0.083 -1.693,-0.102 -0.717,-0.104 -0.868,-0.343 -0.916,0.366 -0.075,1.106 -0.365,1.934 -0.914,2.865 -0.379,2.96 1.462,4.808 3.309,6.655 z"
           id="path3228" />
        <path
           style="fill:#34559c"
           d="m 199.986,331.734 c -0.229,-0.672 -1.164,-1.346 -2.578,-3.343 -1.331,-0.489 -2.36,1.286 -3.165,0.883 -1.846,-1.846 -3.688,-3.695 -3.308,-6.655 -0.047,0.081 -0.084,0.157 -0.135,0.24 -2.143,3.427 -0.686,4.053 0.44,5.522 1.749,2.282 1.064,4.6 7.308,4.799 0.436,0.014 0.923,0.009 1.236,-0.293 0.296,-0.286 0.334,-0.763 0.202,-1.153 z"
           id="path3230" />
        <path
           style="fill:#ffb2a3"
           d="m 201.474,303.055 c -0.606,1.387 -1.25,2.722 -1.902,3.972 -0.977,0.56 -2.227,0.677 -3.36,0.905 -1.739,0.358 -3.432,1.107 -4.689,2.357 -0.332,0.332 -0.638,0.703 -0.885,1.107 0.26,-5.392 3.647,-7.345 4.493,-9.996 0.046,-0.02 0.091,-0.039 0.137,-0.052 1.615,-0.528 3.354,0.143 4.923,0.801 0.489,0.209 1.023,0.463 1.283,0.906 z"
           id="path3232" />
        <path
           style="fill:#f2946f"
           d="m 208.917,276.187 c -3.531,1.177 -8.12,1.28 -10.895,-1.594 -1.002,2.641 -5.192,6.025 -2.373,14.232 l 9.795,-1.838 c 0,0 5.535,-3.527 5.752,-10.69 0.022,-0.738 0.026,-1.44 0.021,-2.12 -0.655,0.78 -1.401,1.471 -2.3,2.01 z"
           id="path3234" />
        <path
           style="fill:#34559c"
           d="m 210.389,301.291 c -0.007,1.244 -5.307,2.846 -10.191,2.768 -3.523,-0.046 -6.824,-0.957 -7.775,-3.504 1.569,-2.624 0.879,-3.77 1.061,-6.824 0.339,-5.529 -1.537,-13.519 4.467,-19.067 0.02,-0.026 0.046,-0.052 0.072,-0.072 1.472,-1.341 0.951,0.052 2.396,0.345 2.429,0.495 4.949,0.54 7.404,0.15 0.638,-0.104 2.971,-1.309 3.394,-0.911 0.002,0.669 0.272,1.719 0.357,2.109 1.752,8.035 1.459,16.762 -1.185,25.006 z"
           id="path3236" />
        <path
           style="fill:#eedfcf"
           d="m 210.181,264.577 c 0,0 0.99,3.673 1.035,9.598 -2.591,1.965 -10.223,3.472 -13.193,0.417 0.143,-0.384 0.228,-0.755 0.202,-1.12 -0.085,-1.517 -1.589,-5.288 -2.989,-8.518 -1.257,-2.891 -2.436,-5.346 -2.436,-5.346 l -0.378,-2.253 6.727,-5.75 6.272,-2.301 c 0,0 1.653,0.888 2.194,3.818 0.54,2.93 0.866,1.791 3.608,5.757 2.741,3.959 -1.042,5.698 -1.042,5.698 z"
           id="path3238" />
        <path
           style="fill:#282752"
           d="m 198.673,244.02 c 0.651,0.182 2.75,0.361 3.887,0.361 1.047,-4.213 -3.583,-5.915 -6.956,-4.818 -1.861,0.605 -0.937,2.616 0.21,3.001 0.499,0.167 1.153,0.536 1.625,0.809 0.387,0.223 0.771,0.517 1.234,0.647 z"
           id="path3240" />
        <path
           style="fill:#e3ccb3"
           d="m 206.823,263.099 c 0.708,1.268 2.083,1.855 3.357,1.478 0.214,0.64 0.898,4.46 0.904,6.226 -0.634,-4.031 -2.15,-3.903 -2.947,-3.341 -0.48,0.339 -0.791,0.86 -1.126,1.342 -2.137,3.081 -6.567,1.712 -7.977,-0.718 6.899,3.32 8.83,-1.615 7.789,-4.987 z"
           id="path3242" />
        <path
           style="fill:#e3ccb3"
           d="m 197.43,275.171 c 0.592,-0.578 0.821,-1.335 0.794,-1.699 -0.085,-1.517 -1.589,-5.288 -2.989,-8.518 0.306,0.111 0.848,-4.334 0.939,-4.275 0,0 0.04,1.856 2.063,8.358 0.697,2.207 2.366,6.354 0.608,9.803 -0.618,-0.345 -0.959,-3.2 -1.415,-3.669 z"
           id="path3244" />
        <path
           style="opacity:0.5;fill:#34559c"
           d="m 200.198,304.058 c -3.523,-0.046 -6.824,-0.957 -7.775,-3.504 1.569,-2.624 0.879,-3.77 1.061,-6.824 0.339,-5.529 -1.537,-13.519 4.467,-19.067 0.795,0.247 1.4,0.847 1.381,1.817 -0.052,2.299 -1.641,4.806 -2.455,6.903 -1.413,3.653 -2.103,7.645 -1.511,11.513 0.541,3.484 2.195,6.857 4.832,9.162 z"
           id="path3246" />
        <path
           style="opacity:0.5;fill:#34559c"
           d="m 208.501,296.874 c 1.247,-2.389 2.085,-4.966 2.917,-7.529 -0.497,2.522 -0.993,5.044 -1.489,7.566 -0.291,1.479 -0.6,3.002 -1.446,4.25 -0.527,0.777 -3.925,3.193 -3.72,1.106 0.075,-0.758 1.354,-1.785 1.788,-2.339 0.747,-0.951 1.39,-1.982 1.95,-3.054 z"
           id="path3248" />
        <path
           style="fill:#ffb2a3"
           d="m 196.599,253.785 c 0.229,0.727 0.375,1.278 1.389,1.821 2.172,1.162 4.332,4.005 6.411,2.755 2.463,-2.116 -2.163,-7.84 -2.708,-9.524 -0.071,-0.22 -5.72,-1.412 -6.013,-1.14 -0.67,0.621 0.692,5.361 0.921,6.088 z"
           id="path3250" />
        <path
           style="fill:#ffb2a3"
           d="m 203.782,254.412 c 0.043,-0.651 -0.371,-3.129 -1.556,-3.943 -1.411,-0.971 -4.106,-0.071 -4.893,0.988 -0.524,0.706 -0.051,1.059 0.478,1.596 1.729,1.756 5.8,3.959 5.971,1.359 z"
           id="path3252" />
        <path
           style="fill:#ffb2a3"
           d="m 204.149,252.397 c 0.678,-1.096 -0.032,-5.939 -2.044,-8.755 -2.783,-3.894 -7.329,-4.116 -9.004,-2.364 -2.004,2.095 -1.215,10.791 3.77,10.184 0.691,-0.084 0.9,-0.189 1.458,0.28 2.675,2.245 5.183,1.684 5.82,0.655 z"
           id="path3254" />
        <path
           style="fill:#282752"
           d="m 200.348,246.61 c -0.363,2.063 -2.333,6.594 0.458,8.672 -3.108,0.336 -6.347,-1.077 -8.216,-3.584 -3.289,-4.413 -1.558,-10.618 1.627,-11.873 1.657,-0.653 3.91,-0.435 5.162,0.978 1.124,1.267 1.363,3.569 0.969,5.807 z"
           id="path3256" />
        <path
           style="fill:#eedfcf"
           d="m 192.473,257.448 c -1.338,0.749 -1.634,8.077 -2.29,14.349 0.435,3.827 9.149,4.683 14.215,5.654 0.813,-0.003 -0.088,-3.141 0.928,-2.587 -3.637,-1.658 -8.29,-3.041 -10.636,-5.105 0.738,-2.116 1.124,-3.454 1.403,-6.01 1.18,-2.85 -1.317,-6.878 -3.62,-6.301 z"
           id="path3258" />
        <path
           style="fill:#ffb2a3"
           d="m 220.061,251.539 0.279,-1.258 0.278,-0.475 0.558,-0.587 1.269,-0.983 1.181,0.46 1.34,1.294 0.321,0.88 -0.698,0.72 -0.776,1.09 -1.1,0.871 -1.282,0.222 c -0.464,0.168 -1.919,-1.407 -1.37,-2.234 z"
           id="path3260" />
        <path
           style="opacity:0.5;fill:#ffb294"
           d="m 220.394,251.48 -0.053,-1.2 0.411,-0.37 0.602,-0.452 0.908,-0.49 0.676,0.331 1.207,1.356 0.506,0.384 -0.061,0.55 -0.776,1.09 -1.1,0.871 -1.282,0.222 c -0.465,0.169 -1.588,-1.465 -1.038,-2.292 z"
           id="path3262" />
        <path
           style="fill:#ffb2a3"
           d="m 220.793,253.405 c 0.584,0.214 1.289,-1.127 1.006,-1.923 l -0.233,-0.596 0.172,-0.84 c 0,0 -0.002,-0.625 -0.102,-0.801 -0.1,-0.176 -0.21,-0.309 -0.353,-0.38 -0.237,-0.117 -0.361,0.192 -0.361,0.192 l -0.228,0.613 -0.329,0.596 -0.286,1.94 z"
           id="path3264" />
        <path
           style="fill:#ffb2a3"
           d="m 222.262,248.969 0.801,0.124 c 0,0 -0.542,0.873 -0.52,1.049 0.022,0.176 0.501,0.56 0.501,0.56 0,0 -0.072,0.302 0.008,0.466 0.08,0.164 0.265,0.299 0.44,0.356 0.175,0.057 0.471,-0.026 0.471,-0.026 0,0 0.44,0.445 0.713,0.414 0.273,-0.031 0.436,-0.553 0.436,-0.553 l 0.176,-0.489 -0.981,-1.188 z"
           id="path3266" />
        <path
           style="fill:#ffb2a3"
           d="m 221.864,248.958 0.41,-0.524 1.207,-1.399 1.662,-0.726 c 0.551,-0.266 1.111,0.288 0.397,0.733 l -1.347,0.763 -0.738,1.089 -0.564,0.397 z"
           id="path3268" />
      </g>
      <polygon
         style="fill:#f3f2f2"
         points="207.824,280.342 209.059,275.729 209.165,275.314 209.696,273.335 211.269,267.467 221.954,266.82 217.283,281.23 207.351,282.108 "
         id="polygon3272" />
      <path
         style="fill:#ffb2a3"
         d="m 209.183,275.247 -0.198,0.759 0.17,0.13 -0.822,3.07 c -0.051,-0.013 -0.109,-0.032 -0.16,-0.045 l -2.28,-1.329 -1.965,-0.501 c -0.809,-0.167 -0.315,-2.839 0.488,-2.756 l 0.912,0.289 c 0.829,-0.289 1.741,-0.527 2.704,-0.732 l 1.363,0.332 z"
         id="path3274" />
      <path
         style="fill:#ffb2a3"
         d="m 213.522,278.256 -0.861,0.257 -0.482,0.482 -0.507,0.34 -0.655,0.283 c -0.944,0.013 -1.856,-0.173 -2.685,-0.411 l 0.822,-3.07 2.036,1.554 2.094,-0.141 c 0.745,0.006 0.739,0.552 0.238,0.706 z"
         id="path3276" />
    </g>
  </g>
</svg>
